<?xml version="1.0" standalone="no"?>
<!DOCTYPE svg PUBLIC "-//W3C//DTD SVG 1.1//EN" "http://www.w3.org/Graphics/SVG/1.1/DTD/svg11.dtd" >
<svg xmlns="http://www.w3.org/2000/svg">
<metadata>Generated by IcoMoon</metadata>
<defs>
<font id="sellcom" horiz-adv-x="1024">
<font-face units-per-em="1024" ascent="960" descent="-64" />
<missing-glyph horiz-adv-x="1024" />
<glyph unicode="&#x20;" horiz-adv-x="512" d="" />
<glyph unicode="&#xe900;" glyph-name="web" d="M793.805 539.75h-564.019c-6.963 0-12.288 5.325-12.288 12.288s5.325 12.288 12.288 12.288h564.019c6.963 0 12.288-5.325 12.288-12.288 0-6.554-5.734-12.288-12.288-12.288zM720.896 196.915h-419.43c-50.381 0-91.341 37.274-91.341 83.558v324.403c0 45.875 40.96 83.558 91.341 83.558h419.43c50.381 0 91.341-37.274 91.341-83.558v-324.403c0-45.875-40.96-83.558-91.341-83.558zM301.466 663.859c-36.864 0-66.765-26.214-66.765-58.982v-324.403c0-32.358 29.901-58.982 66.765-58.982h419.43c36.864 0 66.765 26.214 66.765 58.982v324.403c0 32.358-29.901 58.982-66.765 58.982h-419.43zM315.802 610.202c0-12.698-10.24-22.938-22.938-22.938s-22.938 10.24-22.938 22.938c0 12.698 10.24 22.938 22.938 22.938s22.938-10.24 22.938-22.938zM383.795 610.202c0-12.698-10.24-22.938-22.938-22.938s-22.938 10.24-22.938 22.938c0 12.698 10.24 22.938 22.938 22.938s22.938-10.24 22.938-22.938zM452.198 610.202c0-12.698-10.24-22.938-22.938-22.938s-22.938 10.24-22.938 22.938c0 12.698 10.24 22.938 22.938 22.938 12.288 0 22.938-10.24 22.938-22.938zM686.080 303.002h-357.99c-6.963 0-12.288 5.325-12.288 12.288s5.325 12.288 12.288 12.288h357.99c6.963 0 12.288-5.325 12.288-12.288 0-6.554-5.325-12.288-12.288-12.288zM686.080 382.874h-357.99c-6.963 0-12.288 5.325-12.288 12.288s5.325 12.288 12.288 12.288h357.99c6.963 0 12.288-5.325 12.288-12.288s-5.325-12.288-12.288-12.288zM686.080 462.336h-357.99c-6.963 0-12.288 5.325-12.288 12.288s5.325 12.288 12.288 12.288h357.99c6.963 0 12.288-5.325 12.288-12.288s-5.325-12.288-12.288-12.288z" />
<glyph unicode="&#xe901;" glyph-name="work" d="M518.554 157.184c-54.886 0-108.954 15.565-156.467 46.285-65.126 41.779-110.182 106.906-126.566 182.272s-2.458 153.19 39.322 218.726c41.779 65.126 106.906 110.182 182.272 126.566 75.776 16.384 153.6 2.458 218.726-39.322s110.182-106.906 126.566-182.272v0c16.384-75.776 2.458-153.19-39.322-218.726-41.779-65.126-106.906-110.182-182.272-126.566-20.89-4.915-41.779-6.963-62.259-6.963zM519.373 695.398c-17.613 0-35.635-2.048-53.248-5.734-64.717-13.926-120.013-52.429-155.648-108.134-36.045-55.706-47.923-122.061-33.587-186.778 13.926-64.717 52.429-120.013 108.134-156.058 55.706-35.635 122.061-47.923 186.778-33.587 64.717 13.926 120.013 52.429 156.058 108.134 35.635 55.706 47.923 122.061 33.587 186.778v0c-13.926 64.717-52.429 120.013-108.134 156.058-40.55 26.214-86.835 39.322-133.939 39.322zM512.819 460.288c-49.971 0-90.931 40.96-90.931 91.341s40.96 90.931 90.931 90.931 90.931-40.96 90.931-90.931-40.55-91.341-90.931-91.341zM512.819 600.371c-27.034 0-48.742-21.709-48.742-48.742s21.709-48.742 48.742-48.742c27.034 0 48.742 21.709 48.742 48.742 0 26.624-21.709 48.742-48.742 48.742zM668.058 405.402c-4.506 22.938-24.986 42.189-48.333 42.189h-193.741c-23.347 0-43.827-19.251-48.333-42.598l-15.565-78.643c-2.458-11.469 4.915-23.347 16.384-25.395 1.229-0.41 2.867-0.819 4.096-0.819 9.83 0 18.842 6.963 20.89 16.794l15.565 79.872c0.819 3.277 3.686 8.192 6.963 8.192h60.621c4.915-21.299 14.336-20.48 26.214-24.986l-33.997-103.629 44.237-45.056 44.237 43.827-33.997 104.448c11.878 4.506 21.299 3.686 26.214 24.986h60.621c3.277 0 6.554-4.915 6.963-8.602l15.565-78.643c2.458-11.469 13.517-19.661 24.986-17.203s18.842 14.336 16.384 25.805l-15.974 79.462zM904.397 389.018c16.794 6.554 33.997 14.336 33.997 14.336l2.048 44.646-2.458 45.056c0 0-17.203 7.782-33.997 14.336-17.203 6.554-33.587 11.469-33.587 11.469 0.819 0-4.915 20.89-4.915 20.89s13.517 11.878 26.624 24.986c12.698 13.107 24.166 27.034 24.166 27.034s-3.686 10.65-7.373 21.299c-4.096 10.24-9.011 20.48-9.011 20.48s-4.915 10.24-9.421 20.48c-5.734 9.83-11.469 19.661-11.469 19.661s-18.432 0.41-36.454-0.819c-18.432-1.229-36.045-4.096-36.045-4.096s-12.288 17.613-12.698 17.203c0 0 6.963 15.974 12.698 33.178 6.144 17.203 11.059 35.226 11.059 35.226s-8.192 7.782-16.384 15.565c-4.096 3.686-8.192 7.782-11.469 10.65-2.867 2.867-5.325 4.506-5.325 4.506s-35.635 27.853-36.454 27.034c0 0-17.203-8.192-32.768-16.794-7.782-4.506-15.565-9.011-20.89-12.698-5.734-3.686-9.421-6.554-9.421-6.554l-19.251 9.421c0 0-0.41 18.432-2.867 36.045-2.048 17.613-6.144 36.045-6.144 36.045s-2.458 0.819-6.554 2.458c-4.096 1.638-9.421 3.277-14.746 4.506-11.059 2.867-21.709 5.734-21.709 5.734 0.41 1.229-44.646 8.192-44.646 8.192s-11.469-14.336-21.709-29.901c-10.24-15.155-18.842-30.72-18.842-30.72s-5.325 0.41-10.65 0.41c-5.325-0.41-10.65-0.41-10.65-0.41s-8.602 15.565-18.842 30.72c-10.24 15.565-21.709 29.901-21.709 29.901s-44.646-6.963-44.237-8.192c0 0-11.059-2.867-22.118-5.734-5.734-1.229-11.059-2.867-14.746-4.506-4.096-1.638-6.554-2.458-6.554-2.458s-3.686-18.432-6.144-36.045c-2.458-17.613-2.867-36.045-2.867-36.045l-19.251-9.421c0 0-3.686 2.458-9.421 6.144s-13.107 8.192-20.89 12.698c-15.565 9.011-32.768 16.794-32.768 16.794-0.819 1.229-36.045-26.624-36.045-26.624s-2.458-1.638-5.325-4.506c-3.277-2.867-7.373-6.554-11.469-10.65-8.192-7.782-16.384-15.565-16.384-15.565s4.915-18.432 11.059-35.226c5.734-17.203 12.698-33.178 12.698-33.178s-3.277-4.096-6.554-8.602c-3.277-4.506-6.144-8.602-6.144-8.602s-17.613 2.867-36.045 4.096c-17.613 1.229-36.454 0.819-36.454 0.819s-5.734-9.83-11.469-19.251c-4.915-10.24-9.421-20.070-9.421-20.070s-4.915-10.24-9.011-20.48c-3.686-10.65-7.782-21.299-7.782-21.299s11.469-14.336 24.166-27.034c13.107-13.107 26.624-24.986 26.624-24.986s-5.325-20.89-4.915-20.89c0 0-16.794-4.915-33.587-11.878-16.794-6.554-33.997-14.336-33.997-14.336l-2.048-45.466 2.458-45.056c0 0 17.203-7.782 33.997-14.336 17.203-6.554 33.587-11.469 33.587-11.469-0.819 0 4.915-20.89 4.915-20.89s-13.517-11.878-26.624-24.986c-12.698-13.107-24.166-27.034-24.166-27.034s3.686-10.65 7.373-21.299c4.096-10.24 9.011-20.48 9.011-20.48s4.915-10.24 9.421-20.48c5.734-9.83 11.469-19.661 11.469-19.661s18.432-0.41 36.454 0.819c18.432 1.229 36.045 4.096 36.045 4.096s12.288-17.613 12.698-17.203c0 0-6.963-15.974-12.698-33.178-6.144-17.203-11.059-35.226-11.059-35.226s8.192-7.782 16.384-15.565c4.096-3.686 8.192-7.782 11.469-10.65 2.867-2.867 5.325-4.506 5.325-4.506s35.635-27.853 36.454-27.034c0 0 17.203 8.192 32.768 16.794 7.782 4.506 15.565 9.011 20.89 12.698 5.734 3.686 9.421 6.554 9.421 6.554l19.251-9.421c0 0 0.41-18.432 2.867-36.045 2.048-17.613 6.144-36.045 6.144-36.045s2.458-0.819 6.554-2.458c4.096-1.638 9.421-3.277 14.746-4.506 11.059-2.867 21.709-5.734 21.709-5.734-0.41-1.229 44.646-8.192 44.646-8.192s11.469 14.336 21.709 29.901c10.24 15.155 18.842 30.72 18.842 30.72s5.325-0.41 10.65-0.41c5.325 0.41 10.65 0.41 10.65 0.41s8.602-15.565 18.842-30.72c10.24-15.565 21.709-29.901 21.709-29.901s44.646 6.963 44.237 8.192c0 0 11.059 2.867 22.118 5.734 5.734 1.229 11.059 2.867 14.746 4.506 4.096 1.638 6.554 2.458 6.554 2.458s3.686 18.432 6.144 36.045c2.458 17.613 2.867 36.045 2.867 36.045l19.251 9.421c0 0 3.686-2.458 9.421-6.144s13.107-8.192 20.89-12.698c15.565-9.011 32.768-16.794 32.768-16.794 0.819-1.229 36.045 26.624 36.045 26.624s2.458 1.638 5.325 4.506c3.277 2.867 7.373 6.554 11.469 10.65 8.192 7.782 16.384 15.565 16.384 15.565s-4.915 18.432-11.059 35.226c-5.734 17.203-12.698 33.178-12.698 33.178s3.277 4.096 6.554 8.602c3.277 4.506 6.144 8.602 6.144 8.602s17.613-2.867 36.045-4.096c17.613-1.229 36.454-0.819 36.454-0.819s5.734 9.83 11.469 19.251c4.915 10.24 9.421 20.070 9.421 20.070s4.915 10.24 9.011 20.48c3.686 10.65 7.782 21.299 7.782 21.299s-11.469 14.336-24.166 27.034c-13.107 13.107-26.624 24.986-26.624 24.986s5.325 20.89 4.915 20.89c0 0.819 16.794 6.144 33.587 12.698zM842.957 318.157c6.144-6.554 12.288-13.517 16.384-18.432 4.096-5.325 6.963-8.602 6.963-8.602l-9.83-20.48c0 0-17.613-1.229-35.635 0-18.022 0.819-35.226 2.867-35.226 2.867s-2.048-3.686-5.325-9.011c-3.686-5.325-8.602-11.878-13.926-18.842-4.506-6.963-11.059-13.107-14.746-18.022-4.096-4.915-6.963-7.782-6.963-7.782s1.638-4.096 4.096-10.24c2.048-6.144 4.915-14.336 7.782-22.528 5.325-16.794 9.421-34.406 9.421-34.406s-8.192-7.782-8.602-7.373l-9.011-6.963c0 0-16.794 6.963-31.949 15.155-7.782 3.686-15.565 8.602-21.299 11.878-5.734 3.686-9.421 5.734-9.421 5.734s-3.686-2.048-9.011-5.734c-5.325-3.686-12.698-7.782-20.48-11.059-14.746-8.192-30.72-13.517-30.72-13.517s-1.229-17.203-3.686-35.226c-2.867-17.203-6.963-34.816-6.963-34.816l-11.059-2.867c0 0-10.65-2.867-11.059-2.867 0 0-11.878 14.336-22.118 28.672s-19.251 29.082-19.251 29.082-4.096-0.41-10.65-0.819c-6.144-0.41-14.746-0.819-23.347-1.229-8.602 0.41-16.794 0.819-23.347 1.229-6.144 0.41-10.65 0.819-10.65 0.819s-8.602-14.746-19.251-29.082c-10.24-14.336-22.118-28.672-22.118-28.672 0-0.41-11.059 2.867-11.059 2.867l-11.059 2.867c0 0-4.506 17.613-6.963 34.816-2.458 18.022-3.686 35.226-3.686 35.226s-15.974 5.325-30.72 13.517c-7.782 3.686-15.155 7.373-20.48 11.059-5.325 3.277-9.011 5.734-9.011 5.734s-3.686-2.458-9.421-5.734c-5.734-3.277-13.517-8.192-21.299-11.878-15.565-8.192-31.949-15.155-31.949-15.155l-9.011 6.963c0-0.41-8.602 7.373-8.602 7.373s4.096 18.022 9.421 34.406c2.458 8.602 5.325 16.794 7.782 22.528 2.458 6.144 4.096 10.24 4.096 10.24s-2.867 3.277-6.963 8.192c-4.096 4.915-10.24 10.65-14.746 18.022-4.915 6.963-9.83 13.926-13.926 18.842-3.277 5.325-5.325 9.011-5.325 9.011s-17.203-2.048-35.226-2.867c-18.022-1.229-35.635 0-35.635 0l-9.83 20.48c0 0 2.867 3.277 6.963 8.602 4.506 5.325 10.24 11.878 16.384 18.432 12.288 13.107 24.986 24.986 24.986 24.986s-1.638 4.096-3.277 10.24c-1.638 6.144-3.686 14.336-5.734 22.938-2.458 8.192-2.867 16.794-4.096 22.938-0.819 6.144-1.638 10.65-1.638 10.65s-4.096 1.229-10.65 3.686c-6.144 2.048-14.336 5.325-22.118 8.602-16.384 6.963-32.358 15.155-32.358 15.155l-0.41 11.469 0.41 11.059c0 0 16.384 8.192 32.358 15.155 8.192 3.277 15.974 6.554 22.118 8.602s10.65 3.686 10.65 3.686 0.819 4.096 1.638 10.65c1.229 6.144 1.638 14.746 4.096 22.938 2.048 8.192 4.096 16.384 5.734 22.938 1.638 6.144 3.277 10.24 3.277 10.24s-12.698 11.878-24.986 24.986c-6.144 6.554-12.288 13.517-16.384 18.432-4.096 5.325-6.963 8.602-6.963 8.602l9.83 20.48c0 0 17.613 1.229 35.635 0 18.022-0.819 35.226-2.867 35.226-2.867s2.048 3.686 5.325 9.011c3.686 5.325 8.602 11.878 13.926 18.842 4.506 6.963 10.65 13.107 14.746 18.022s6.963 7.782 6.963 7.782-1.638 4.096-4.096 10.24c-2.048 6.144-4.915 14.336-7.782 22.528-3.686 15.974-7.782 33.587-7.782 33.587s8.192 7.782 8.602 7.373l9.011 6.963c0 0 16.794-6.963 31.949-15.155 7.782-3.686 15.565-8.602 21.299-11.878 5.734-3.686 9.421-5.734 9.421-5.734s3.686 2.048 9.011 5.734c5.325 3.686 12.698 7.782 20.48 11.059 14.746 8.192 30.72 13.517 30.72 13.517s1.229 17.203 3.686 35.226c2.867 17.203 6.963 34.816 6.963 34.816l11.059 2.867c0 0 10.65 2.867 11.059 2.867 0 0 11.878-14.336 22.118-28.672s19.251-29.082 19.251-29.082 4.096 0.41 10.65 0.819c6.144 0.41 14.746 0.819 23.347 1.229 8.602-0.41 16.794-0.819 23.347-1.229 6.144-0.41 10.65-0.819 10.65-0.819s8.602 14.746 19.251 29.082c10.24 14.336 22.118 28.672 22.118 28.672 0 0.41 11.059-2.867 11.059-2.867l11.059-2.867c0 0 4.506-17.613 6.963-34.816 2.458-18.022 3.686-35.226 3.686-35.226s15.974-5.325 30.72-13.517c7.782-3.686 15.155-7.373 20.48-11.059 5.325-3.277 9.011-5.734 9.011-5.734s3.686 2.458 9.421 5.734c5.734 3.277 13.517 8.192 21.299 11.878 15.565 8.192 31.949 15.155 31.949 15.155l9.011-6.963c0 0.41 8.602-7.373 8.602-7.373s-4.096-18.022-9.421-34.406c-2.458-8.602-5.325-16.794-7.782-22.528-2.458-6.144-4.096-10.24-4.096-10.24s2.867-3.277 6.963-7.782c4.096-4.915 10.24-10.65 14.746-18.022 4.915-6.963 9.83-13.926 13.926-18.842 3.277-5.325 5.325-9.011 5.325-9.011s17.203 2.048 35.226 2.867c18.022 1.229 35.635 0 35.635 0l9.83-20.48c0 0-2.867-3.277-6.963-8.602-4.506-5.325-10.24-11.878-16.384-18.432-12.288-13.107-24.986-24.986-24.986-24.986s1.638-4.096 3.277-10.24c1.638-6.144 3.686-14.336 5.734-22.938 2.458-8.192 2.867-16.794 4.096-22.938 0.819-6.144 1.638-10.65 1.638-10.65s4.096-1.229 10.65-3.686c6.144-2.048 14.336-5.325 22.118-8.602 16.384-6.963 32.358-15.155 32.358-15.155l0.41-11.469-0.41-11.059c0 0-16.384-8.192-32.358-15.155-8.192-3.277-15.974-6.554-22.118-8.602s-10.65-3.686-10.65-3.686-0.819-4.096-1.638-10.65c-1.229-6.144-1.638-14.746-4.096-22.938-2.048-8.192-4.096-16.384-5.734-22.938-1.638-6.144-3.277-10.24-3.277-10.24s11.469-11.469 23.347-24.576z" />
<glyph unicode="&#xe902;" glyph-name="time" d="M523.469 716.698c-144.179 0-261.325-117.146-261.325-261.325s117.146-261.325 261.325-261.325 261.325 117.146 261.325 261.325-117.146 261.325-261.325 261.325zM648.806 272.691l-12.288 21.299c-5.325 9.421-17.613 12.698-27.034 7.373s-12.698-17.613-7.373-27.034l11.878-20.89c-22.118-9.83-45.875-16.384-70.861-18.432v14.746c0 11.059-9.011 19.661-19.661 19.661s-19.661-9.011-19.661-19.661v-14.746c-25.805 2.458-49.971 9.011-72.499 19.661l11.059 19.251c5.325 9.421 2.048 21.709-7.373 27.034s-21.709 2.048-27.034-7.373l-11.059-19.251c-20.89 14.746-38.912 32.768-53.658 53.658l18.842 11.059c9.421 5.325 12.698 17.613 7.373 27.034s-17.613 12.698-27.034 7.373l-19.251-11.059c-9.83 20.48-16.384 42.598-19.251 65.946h21.299c11.059 0 19.661 9.011 19.661 19.661 0 11.059-9.011 19.661-19.661 19.661h-22.528c1.638 27.853 8.192 54.477 18.842 78.643l21.709-12.698c3.277-1.638 6.554-2.458 9.83-2.458 6.963 0 13.517 3.686 17.203 9.83 5.325 9.421 2.048 21.709-7.373 27.034l-22.118 12.698c14.336 20.89 32.358 39.322 53.248 54.067l12.288-21.709c3.686-6.554 10.24-9.83 17.203-9.83 3.277 0 6.963 0.819 9.83 2.458 9.421 5.325 12.698 17.613 7.373 27.034l-12.698 22.118c23.347 11.059 48.742 18.432 75.366 20.89v-29.901c0-11.059 9.011-19.661 19.661-19.661 11.059 0 19.661 9.011 19.661 19.661v30.31c26.214-2.458 51.2-9.421 74.138-20.070l-13.517-23.757c-5.325-9.421-2.048-21.709 7.373-27.034 3.277-1.638 6.554-2.458 9.83-2.458 6.963 0 13.517 3.686 17.203 9.83l13.517 23.757c20.89-14.746 38.912-32.768 53.658-53.658l-23.757-13.517c-9.421-5.325-12.698-17.613-7.373-27.034 3.686-6.554 10.24-9.83 17.203-9.83 3.277 0 6.554 0.819 9.83 2.458l23.757 13.517c11.469-24.576 18.432-51.61 20.070-80.282h-22.938c-11.059 0-19.661-9.011-19.661-19.661s9.011-19.661 19.661-19.661h21.709c-2.867-24.166-9.83-46.694-20.070-67.994l-20.89 12.288c-9.421 5.325-21.709 2.048-27.034-7.373s-2.048-21.709 7.373-27.034l20.48-11.878c-15.155-21.299-33.587-39.322-54.477-54.067zM631.603 570.061c7.782-7.373 8.192-20.070 0.819-27.853l-81.92-86.426c0-14.746-12.288-27.034-27.034-27.034-12.288 0-22.118 8.192-25.805 19.251l-52.019 29.901c-9.421 5.325-12.698 17.613-7.373 27.034s17.613 12.698 27.034 7.373l51.61-29.901c1.229 0.41 2.867 0.41 4.096 0.41l81.92 86.426c8.192 7.782 20.89 8.192 28.672 0.819zM942.080 363.622c0 0-0.819-4.096-2.458-10.24s-3.686-14.336-5.734-22.528c-1.638-8.192-4.915-15.974-6.963-22.118-2.048-5.734-3.686-9.83-3.686-9.83s-5.325-1.638-12.698-4.506c-7.373-2.867-18.022-5.734-28.672-8.192-21.299-4.915-41.37-7.782-41.37-7.782s-3.686-6.144-7.373-12.288c-3.686-6.144-7.373-12.288-7.373-12.288s-2.867-5.325-6.144-9.83c-3.277-4.506-6.963-9.421-6.963-9.421s1.638-4.915 3.686-12.698c2.048-7.373 5.325-18.432 6.963-28.262 4.096-20.48 6.554-43.008 6.554-43.008s-2.458-3.277-7.373-7.373c-4.506-4.096-11.059-9.83-17.203-15.565s-12.288-11.059-17.613-14.746c-4.915-3.686-8.602-6.144-8.602-6.144s-5.325 1.229-13.517 3.277c-7.782 2.048-18.022 4.506-28.262 8.602-20.48 7.373-38.912 15.565-38.912 15.565s-1.638-0.819-3.686-2.458c-2.458-1.229-5.734-2.867-9.011-4.096-6.554-3.277-13.107-6.144-13.107-6.144s-5.325-2.458-10.65-4.915c-5.325-2.048-11.059-4.096-11.059-4.096s-5.325-20.070-13.107-40.55c-7.782-19.251-18.022-39.322-18.022-39.322 0.41-1.638-66.355-11.469-66.355-9.83 0 0-15.565 15.974-28.672 32.358-13.517 17.203-24.166 34.816-24.166 34.816s-7.373 0.41-14.336 0.819c-6.963 1.229-14.336 2.048-14.336 2.048l4.915 33.178c0 0 2.458-0.41 6.144-0.819 3.686-0.819 8.602-1.229 13.517-1.229 10.24-0.41 20.070-0.819 20.070-0.819s2.867-4.506 6.963-11.059c4.096-6.144 10.24-14.336 16.794-22.118 6.554-8.192 13.517-16.384 18.842-22.118 5.325-6.144 9.011-9.421 9.011-9.421l27.443 4.096c0 0 2.458 4.506 6.144 11.878 3.277 7.373 7.782 17.203 11.469 27.034s6.963 19.251 9.421 26.214c2.048 7.373 3.277 12.288 3.277 12.288s33.178 11.878 32.768 13.107c0 0 9.011 4.506 18.022 8.602 8.602 4.915 17.203 10.24 17.203 10.24s4.506-2.048 11.469-5.325c7.373-3.277 16.794-6.963 26.214-10.24 19.251-6.554 40.96-11.469 40.96-11.469s5.325 4.506 10.24 9.421c5.325 4.506 10.24 9.421 10.24 9.421s-1.638 20.89-6.144 41.779c-2.048 10.24-4.506 20.070-6.554 27.443-1.638 6.963-3.686 11.878-3.686 11.878s21.299 27.853 20.48 28.672c0 0 5.325 8.602 10.24 17.203 2.867 4.096 4.506 9.011 6.144 12.288s2.867 5.734 2.867 5.734 4.915 0.819 12.698 1.638c7.782 1.229 18.022 2.867 27.853 5.734 19.661 4.915 40.55 12.288 40.55 12.288 0.819-0.41 7.373 27.034 7.373 27.034s-3.277 4.096-8.192 10.24c-4.915 6.144-11.878 13.926-19.251 21.299-14.746 15.155-29.901 27.443-29.901 27.443s0.41 2.048 0.41 5.325c0 3.277 0.41 7.782 0.41 12.288 0.41 8.602 0.819 17.613 0.819 17.613s-0.41 10.24-1.229 20.070c-0.41 4.915-0.41 10.24-0.819 13.926s-0.819 6.144-0.819 6.144 15.155 12.698 29.901 27.853c7.782 7.782 13.517 15.565 18.842 21.709 4.915 6.144 8.192 10.65 8.192 10.65s-1.638 6.554-3.686 13.517c-1.638 6.554-4.506 13.107-4.506 13.107s-20.48 6.963-40.141 11.878c-20.48 4.506-40.55 6.963-40.55 6.963s-0.819 2.048-2.458 4.915c-1.229 2.867-3.277 6.963-5.734 10.65-4.506 7.373-9.011 15.155-9.011 15.155 0.819 0.819-23.757 32.358-23.757 32.358s5.734 18.842 9.421 39.322c2.048 10.24 3.686 20.89 4.096 28.672 0.819 7.782 1.229 13.107 1.229 13.107s-20.48 18.842-20.89 18.022c0 0-21.299-5.325-40.55-11.878-9.421-3.277-19.251-7.782-26.214-10.65-6.963-3.277-11.469-5.325-11.469-5.325s-2.048 1.229-4.506 2.867c-2.867 1.638-6.554 4.096-10.65 5.734-7.782 3.686-15.974 7.782-15.974 7.782 0.41 1.229-37.274 14.746-37.274 14.746s-1.229 4.915-3.686 11.878c-2.458 6.963-5.734 16.794-9.83 26.214-7.373 20.070-18.022 38.093-18.022 38.093l-27.443 4.096c0 0-15.155-15.974-27.443-32.358-12.698-15.565-22.938-33.587-22.938-33.587s-8.602-0.41-17.613-0.819c-4.506 0-8.602-0.819-11.878-1.229s-5.325-0.819-5.325-0.819-9.83-1.638-19.661-2.867c-9.83-2.458-19.251-4.915-19.251-4.915s-15.155 14.336-31.949 25.395c-16.794 11.878-36.045 22.528-36.045 22.528l-24.986-11.878c0 0-0.819-5.325-2.458-12.698-1.229-7.782-2.458-18.432-3.277-29.082-0.819-10.24-1.229-20.48-1.229-27.853-0.41-7.373 0-12.698 0-12.698s-28.262-20.89-27.853-21.709c0 0-7.373-6.554-14.746-13.517s-13.517-14.746-13.517-14.746-4.915 0.819-12.698 1.638c-7.782 1.229-18.022 2.048-28.262 2.458-20.48 0.819-42.189-0.41-42.189-0.41s-3.686-5.734-7.373-11.878c-3.686-6.144-7.373-11.878-7.373-11.878s7.373-19.661 17.613-38.093c4.915-9.011 10.24-18.022 13.926-24.166s6.963-10.65 6.963-10.65-2.867-8.192-6.144-16.384c-1.638-4.096-2.867-8.192-4.096-11.469-0.819-3.277-1.229-5.325-1.229-5.325s-2.458-9.83-4.915-19.251c-1.638-4.915-2.458-9.83-2.867-13.517s-0.819-6.144-0.819-6.144-18.432-7.782-36.864-18.432c-17.203-10.24-34.816-23.347-34.816-23.347s-0.819-6.963-0.41-13.926c0.41-6.963 0.819-13.926 0.819-13.926s17.203-12.698 35.226-22.528c18.432-10.24 36.864-18.022 36.864-18.022-1.229-0.41 7.782-33.997 7.782-33.997s0.41-2.458 1.638-6.144c1.229-3.686 2.867-8.192 4.915-13.107 1.638-4.915 3.277-9.421 4.506-13.107s2.458-5.734 2.458-5.734-10.65-16.384-20.48-35.226c-4.915-9.421-9.011-18.842-11.878-26.214s-4.915-12.288-4.915-12.288 3.686-6.144 7.373-11.878c3.277-6.144 7.782-11.469 7.782-11.469s21.709-0.819 42.189 0c20.89 1.229 40.96 4.915 40.96 4.915s1.638-1.638 3.686-4.096c2.048-2.458 4.915-5.734 8.602-8.602 6.554-5.734 13.107-11.878 13.107-11.878v0c-0.819-0.819 31.539-24.576 31.539-24.576s0-19.661 2.048-40.55c0.819-10.65 2.458-20.89 4.096-28.672s2.458-13.107 2.458-13.107 24.986-12.288 25.395-11.469c0 0 18.842 11.059 35.226 22.938 8.192 5.734 16.384 12.698 22.118 17.613s9.421 8.602 9.421 8.602 8.602-2.458 17.203-4.096c8.602-1.229 17.203-2.458 17.203-2.458l-4.915-33.178c0 0-5.734 0.819-11.469 1.638s-11.469 2.048-11.469 2.048-15.155-13.517-32.768-26.214c-8.602-6.554-18.022-12.698-24.576-16.794-6.963-4.096-11.878-6.963-11.878-6.963s-4.096 1.638-9.83 3.686c-5.734 2.048-14.336 4.915-21.709 8.602-15.155 7.373-30.72 14.746-30.72 14.746s-5.734 22.118-7.782 43.418c-1.229 10.24-4.506 20.89-4.506 29.082 0 7.782 0 13.107 0 13.107s-3.277 4.096-9.011 8.602c-2.867 2.048-3.277 4.506-4.915 6.144-2.048 1.638-3.277 2.867-3.277 2.867l-17.203 15.565c0 0-5.325-1.229-12.698-2.048-7.782-0.819-18.022-2.048-28.672-2.867-21.709-1.638-43.418-0.41-43.418-0.41s-2.458 3.277-6.144 8.602c-3.686 5.325-9.011 11.469-13.517 18.842-8.602 14.336-17.613 28.672-17.613 28.672s2.048 5.325 5.325 12.698c3.277 7.782 7.782 17.613 12.698 27.034 9.011 18.842 21.299 36.454 21.299 36.454s-10.24 27.034-9.421 27.034l-5.734 22.528c0 0-4.915 2.048-12.288 5.325-6.963 3.277-15.974 8.192-25.395 13.517s-18.842 11.059-25.805 15.565c-7.373 2.048-11.469 5.325-11.469 5.325s-0.819 16.794-1.638 33.587c0 16.794 1.229 33.587 1.229 33.587s17.203 13.517 36.454 23.757c18.842 11.059 37.274 19.251 37.274 19.251l6.963 27.853c-0.819 0 7.373 22.118 7.373 22.118s-2.867 4.506-7.373 11.059c-4.096 6.554-10.24 15.974-14.746 25.395-9.83 18.842-18.432 39.731-18.432 39.731s1.638 4.096 4.915 9.011c3.277 5.325 7.782 12.698 11.878 19.661 4.096 7.373 9.011 14.336 12.698 19.251s6.144 8.602 6.144 8.602 5.325 0.41 13.517 0.819c8.192 0.41 18.842 0.41 29.901 0 21.709-1.229 41.779-4.096 41.779-4.096-0.41 0.41 20.89 19.661 20.89 19.661s4.096 4.096 8.602 7.782c4.506 3.277 9.421 6.963 9.421 6.963s0 5.325 0 13.107c0 7.782 0 18.842 1.229 29.082 2.048 20.89 6.144 43.008 6.144 43.008-0.819 1.638 60.211 29.901 61.030 28.262 0 0 4.915-2.867 11.878-6.963 6.963-4.506 15.974-9.421 24.986-15.974 17.613-12.698 33.178-26.214 33.178-26.214 0 0.819 28.262 4.915 28.262 4.915s5.734 0.819 11.469 1.638c5.734 0.819 11.469 0.819 11.469 0.819s10.65 17.203 23.757 34.816c6.554 9.011 13.517 16.384 18.842 22.528 5.734 6.144 9.421 10.24 9.421 10.24s4.096-0.41 10.65-0.41c6.144 0 14.746-1.229 22.938-2.458s16.794-2.458 22.938-3.686c6.144-0.819 10.24-2.048 10.24-2.048s10.65-20.070 18.432-39.322c4.096-9.421 7.373-19.661 9.83-27.443 2.048-7.373 3.686-12.698 3.686-12.698s6.554-2.458 13.517-4.915c3.277-1.229 6.554-2.867 9.011-4.096s4.096-2.048 4.096-2.048l20.89-10.24c0 0 4.506 2.458 11.878 5.325 6.963 2.867 16.794 6.963 27.034 10.65 20.48 7.782 41.779 12.288 41.779 12.288s3.277-2.458 8.602-6.144c4.915-4.096 11.878-8.602 18.022-14.336 12.288-11.469 24.986-22.528 24.986-22.528s-2.048-22.528-6.144-43.418c-1.638-10.24-4.096-20.48-6.554-28.262-2.048-7.373-3.686-12.698-3.686-12.698s17.203-22.938 16.384-23.347l11.878-19.661c0 0 5.325-0.41 12.698-1.638 7.782-1.229 18.022-3.277 28.262-5.734s21.299-4.915 29.082-7.782c7.782-2.458 12.698-4.506 12.698-4.506s6.144-15.565 11.059-31.539c4.096-16.384 8.192-32.768 8.192-32.768s-2.867-4.506-8.602-10.65c-5.325-6.554-12.698-14.746-20.070-22.528s-14.746-15.155-20.48-20.48c-6.144-5.325-10.24-8.602-10.24-8.602l1.229-28.672-1.229-23.347c0 0 4.096-3.277 10.24-8.602s13.517-12.288 20.89-20.070c16.794-14.746 31.13-32.358 31.13-32.358z" />
<glyph unicode="&#xe903;" glyph-name="movil" d="M461.21 172.339c0-12.698-10.24-22.938-22.938-22.938s-22.938 10.24-22.938 22.938c0 12.698 10.24 22.938 22.938 22.938s22.938-10.24 22.938-22.938zM569.344 110.899h-262.144c-33.997 0-61.44 27.443-61.44 61.44v393.216c0 33.997 27.443 61.44 61.44 61.44h262.144c33.997 0 61.44-27.443 61.44-61.44v-393.216c0-33.997-27.443-61.44-61.44-61.44zM307.2 602.419c-20.48 0-36.864-16.384-36.864-36.864v-393.216c0-20.48 16.384-36.864 36.864-36.864h262.144c20.48 0 36.864 16.384 36.864 36.864v393.216c0 20.48-16.384 36.864-36.864 36.864h-262.144zM546.816 213.299h-217.088c-13.517 0-24.576 11.059-24.576 24.576v307.2c0 13.517 11.059 24.576 24.576 24.576h217.088c13.517 0 24.576-11.059 24.576-24.576v-307.2c0-13.517-11.059-24.576-24.576-24.576zM329.728 545.075v-307.2h217.088v307.2h-217.088zM687.718 578.253c-0.819 0-1.638 0-2.458 0.41-6.554 1.229-11.059 7.782-9.421 14.336 5.325 24.986-2.458 50.79-20.48 68.813s-43.827 25.805-68.813 20.48c-6.554-1.229-13.107 2.867-14.336 9.421s2.867 13.107 9.421 14.336c33.178 6.963 67.584-3.277 91.341-27.034 23.757-24.166 33.997-58.163 27.034-91.341-1.638-5.325-6.554-9.421-12.288-9.421zM765.952 599.142c-6.554 0-12.288 5.325-12.288 12.288-0.41 39.731-16.384 77.005-44.237 104.858s-65.126 43.827-104.858 44.237c-6.963 0-12.288 5.734-12.288 12.288 0 6.963 5.325 12.288 12.288 12.288 46.285-0.41 89.293-18.842 122.061-51.61s50.79-75.776 51.61-122.061c0-6.554-5.325-12.288-12.288-12.288 0 0 0 0 0 0z" />
<glyph unicode="&#xe904;" glyph-name="menu" d="M760.218 561.050h-480.051c-27.853 0-50.79 22.118-50.79 50.79v0c0 27.853 22.118 50.79 50.79 50.79h480.461c27.853 0 50.79-22.118 50.79-50.79v0c-0.41-27.853-22.528-50.79-51.2-50.79zM677.478 397.619h-397.312c-27.853 0-50.79 22.118-50.79 50.79v0c0 27.853 22.118 50.79 50.79 50.79h397.312c27.853 0 50.79-22.118 50.79-50.79v0c-0.41-27.853-23.347-50.79-50.79-50.79zM760.218 234.598h-480.051c-27.853 0-50.79 22.118-50.79 50.79v0c0 27.853 22.118 50.79 50.79 50.79h480.461c27.853 0 50.79-22.118 50.79-50.79v0c-0.41-27.853-22.528-50.79-51.2-50.79z" />
<glyph unicode="&#xe905;" glyph-name="linkedin" d="M769.229 392.294v-190.054h-110.182v177.357c0 44.646-15.974 74.957-55.706 74.957-30.31 0-48.742-20.48-56.525-40.55-2.867-6.963-3.686-16.794-3.686-27.034v-184.73h-110.182c0 0 1.638 300.646 0 331.776h110.182v-47.104c-0.41-0.41-0.41-0.819-0.819-1.229h0.819v1.229c14.746 22.528 40.96 54.886 99.533 54.886 72.090 0 126.566-47.514 126.566-149.504v0zM317.030 693.76c-37.683 0-62.259-24.576-62.259-57.344 0-31.949 23.757-57.344 61.030-57.344h0.819c38.502 0 62.259 25.395 62.259 57.344-0.819 32.768-24.166 57.344-61.85 57.344v0zM261.325 202.24h110.182v331.776h-110.182v-331.776z" />
<glyph unicode="&#xe906;" glyph-name="SCROLL" d="M437.862 763.802c-120.013-10.65-202.342-119.194-202.342-271.155v-149.504c0-119.194 97.485-212.582 222.413-212.582 124.518 0 222.413 93.389 222.413 212.582v149.504c0 182.272-99.942 265.421-212.582 271.974-16.384 1.229-29.901-0.819-29.901-0.819zM650.445 502.477c-0.819 0.41-2.048 0.41-3.277 0.41h-179.405v231.834c107.315-5.325 179.405-97.075 182.682-232.243zM437.862 733.901v-231.424h-172.442c3.686 129.024 72.499 220.774 172.442 231.424zM457.933 160.87c-109.773 0-192.512 78.643-192.512 182.682v129.434h381.747c1.229 0 2.048 0 3.277 0.41v-129.843c0-104.038-82.739-182.682-192.512-182.682zM794.214 432.026c-3.277 3.277-8.192 3.277-11.469 0l-22.528-22.528v122.88c0 4.506-3.686 8.192-8.192 8.192s-8.192-3.686-8.192-8.192v-122.88l-23.347 23.347c-3.277 3.277-8.192 3.277-11.469 0s-3.277-8.192 0-11.469l37.274-37.274c3.277-3.277 8.192-3.277 11.469 0l36.454 36.454c3.277 3.277 3.277 8.602 0 11.469z" />
<glyph unicode="&#xe907;" glyph-name="money" d="M514.867 25.702c-12.288 0-24.166 0.41-35.635 1.638l-5.734 0.41c-20.89 2.048-41.779 6.144-64.307 11.878l-11.878 3.277-19.661 106.086c-11.469 5.325-22.118 11.059-32.358 16.794l-98.304-43.008-9.421 8.192c-17.613 15.565-32.768 30.72-45.875 46.694-0.819 0.819-1.229 1.229-2.048 2.048l-1.229 2.048c-13.107 15.974-24.986 33.997-36.864 54.067l-6.144 10.65 61.030 88.064c-4.096 11.059-7.373 22.938-10.65 34.816l-99.942 39.322-0.819 12.288c-1.638 22.938-1.229 45.056 0.41 65.536l0.41 5.734c2.048 20.89 6.144 41.779 11.878 64.307l3.277 11.878 105.677 19.251c5.325 11.059 10.65 22.118 16.794 32.358l-42.189 98.304 8.192 9.421c15.565 17.613 30.72 32.768 46.694 45.875l4.506 3.686c15.974 13.107 33.587 24.986 54.067 36.864l10.65 6.144 88.064-61.030c11.059 4.096 22.938 7.373 34.816 10.65l39.322 99.942 12.288 0.819c23.347 1.638 44.646 1.229 65.536-0.41l5.734-0.41c20.89-2.048 41.779-6.144 64.307-11.878l11.878-3.277 19.251-105.677c11.469-5.325 22.118-11.059 32.358-16.794l98.304 43.008 9.421-8.192c17.613-15.565 32.768-30.72 45.875-46.694 0.819-0.819 1.229-1.638 2.048-2.048l1.638-2.048c13.107-16.384 25.395-33.997 36.864-54.477l6.144-10.65-61.030-88.064c4.096-11.059 7.373-22.938 10.65-34.816l99.942-39.322 0.819-12.288c1.638-23.347 1.229-44.646-0.41-65.536l-0.41-6.144c-2.048-20.48-6.144-41.779-11.878-64.307l-3.277-11.878-105.677-19.251c-5.325-11.059-10.65-22.118-16.794-32.358l43.008-98.304-8.192-9.421c-15.565-17.613-30.72-32.768-46.285-45.875l-4.506-3.686c-15.974-13.107-33.587-24.986-54.067-36.864l-10.65-6.144-89.702 61.030c-11.059-4.096-22.938-7.373-34.816-10.65l-39.322-99.942-12.288-0.819c-10.24-0.41-20.070-0.819-29.491-0.819zM430.49 74.445c15.974-3.686 31.539-6.554 46.694-8.192l5.325-0.41c15.155-1.229 30.72-1.638 47.104-1.229l37.683 96.256 10.24 2.048c17.203 3.686 33.587 8.602 48.333 14.746l9.83 3.686 84.787-58.573c14.336 8.602 27.034 17.613 38.502 27.443l4.096 3.277c11.469 9.421 22.938 20.48 34.406 32.768l-41.37 94.618 5.734 8.602c9.011 13.517 16.794 28.672 23.757 44.646l4.096 9.421 101.581 18.432c3.686 15.974 6.554 31.539 7.782 46.694l0.41 5.325c1.229 15.155 1.638 30.72 1.229 47.104l-96.256 37.683-2.048 10.24c-3.686 17.203-8.602 33.587-14.746 48.333l-3.686 9.83 58.573 84.787c-8.602 14.336-17.613 27.034-27.034 38.502l-3.277 4.096c-9.421 11.469-20.48 22.528-32.768 33.997l-94.618-41.37-8.602 5.734c-13.517 8.602-28.672 16.794-44.646 23.757l-9.421 4.096-18.432 101.581c-15.974 3.686-31.539 6.554-46.694 8.192l-5.325 0.41c-15.155 1.229-30.72 1.638-47.514 1.229l-37.683-96.256-10.24-2.048c-17.203-3.686-33.587-8.602-48.333-14.746l-9.83-3.686-84.378 58.982c-14.336-9.011-27.034-17.613-38.502-27.443l-4.096-3.277c-11.469-9.421-22.528-20.070-33.997-32.768l41.37-94.618-6.144-8.602c-9.011-13.517-16.794-28.672-23.757-44.646l-4.096-9.421-101.581-18.432c-3.686-16.384-6.554-31.539-8.192-46.694l-0.41-5.325c-1.229-15.155-1.638-30.72-1.229-47.104l96.256-37.683 2.048-10.24c3.686-17.203 8.602-33.587 14.746-48.742l3.686-9.83-58.573-84.787c9.011-14.336 17.613-27.034 27.443-38.502l3.277-3.686c9.83-11.878 20.48-22.938 32.768-34.406l94.618 41.37 8.602-5.734c13.517-9.011 28.672-16.794 44.646-23.757l9.421-4.096 18.432-101.581zM531.661 466.432v74.138c27.034-3.277 49.152-18.842 49.152-36.045 0-10.65 8.602-19.251 19.251-19.251s19.251 8.602 19.251 19.251c0 39.322-37.683 70.451-87.654 74.547v40.96c0 10.65-8.602 19.251-19.251 19.251s-19.251-8.602-19.251-19.251v-43.008c-41.779-9.011-71.68-37.274-71.68-72.499 0-20.89 10.24-55.706 71.68-70.451v-73.318c-19.251 6.144-33.178 18.842-33.178 32.358 0 10.65-8.602 19.251-19.251 19.251s-19.251-8.602-19.251-19.251c0-35.226 29.901-63.488 71.68-72.499v-29.082c0-10.65 8.602-19.251 19.251-19.251s19.251 8.602 19.251 19.251v27.034c49.971 4.096 87.654 35.226 87.654 74.547 0 18.022-9.011 60.211-87.654 73.318zM459.981 504.525c0 13.517 13.926 26.214 33.178 32.358v-63.078c-17.613 5.325-33.178 14.746-33.178 30.72zM531.661 356.659v70.042c20.89-4.096 49.152-13.517 49.152-33.997 0-17.203-22.118-32.358-49.152-36.045zM516.506 192c-146.227 0-265.421 119.194-265.421 265.421s119.194 265.421 265.421 265.421 265.421-119.194 265.421-265.421c0-146.227-119.194-265.421-265.421-265.421zM516.506 684.339c-124.928 0-226.918-101.581-226.918-226.918 0-124.928 101.581-226.918 226.918-226.918s226.918 101.581 226.918 226.918c-0.41 125.338-101.99 226.918-226.918 226.918z" />
<glyph unicode="&#xe908;" glyph-name="arrow" d="M516.096 246.886l232.243 402.227h-464.486z" />
<glyph unicode="&#xe909;" glyph-name="check" d="M456.294 219.853h-145.408c-47.514 0-86.016 38.502-86.016 86.016v344.064c0 47.514 38.502 86.016 86.016 86.016h270.336c47.514 0 86.016-38.502 86.016-86.016v-145.408c0-6.963-5.325-12.288-12.288-12.288s-12.288 5.325-12.288 12.288v144.998c0 33.587-27.443 61.44-61.44 61.44h-270.336c-33.587 0-61.44-27.443-61.44-61.44v-344.064c0-33.587 27.443-61.44 61.44-61.44h145.408c6.963 0 12.288-5.325 12.288-12.288 0-6.144-5.325-11.878-12.288-11.878zM478.822 441.446h-164.25c-6.963 0-12.288 5.325-12.288 12.288s5.325 12.288 12.288 12.288h164.25c6.963 0 12.288-5.325 12.288-12.288 0-6.554-5.325-12.288-12.288-12.288zM478.822 521.318h-164.25c-6.963 0-12.288 5.325-12.288 12.288s5.325 12.288 12.288 12.288h164.25c6.963 0 12.288-5.325 12.288-12.288s-5.325-12.288-12.288-12.288zM478.822 600.781h-164.25c-6.963 0-12.288 5.325-12.288 12.288s5.325 12.288 12.288 12.288h164.25c6.963 0 12.288-5.325 12.288-12.288s-5.325-12.288-12.288-12.288zM620.954 153.088c-25.805 0-59.392 6.963-74.138 20.48-14.336 13.107-24.576 29.491-32.358 51.61-9.421 26.624-18.432 41.37-35.226 58.573-5.325 5.325-18.432 13.517-31.539 21.299-34.406 20.89-56.934 36.045-60.621 54.067-1.229 6.554 0.41 13.107 4.096 18.432 22.528 29.901 77.005 15.974 101.581 0 5.325-3.277 16.384-11.059 27.034-18.842 0.41 79.053-0.819 228.147-1.229 229.786 0 18.432 11.878 47.923 43.008 47.923 15.155 0 28.262-6.963 36.864-20.070 6.554-9.83 9.83-20.89 9.83-27.853v-169.165c0-6.963-5.325-12.288-12.288-12.288s-12.288 5.325-12.288 12.288v169.574c0 2.867-4.915 23.347-22.118 23.347-18.022 0-18.432-22.938-18.432-23.347 0-1.638 2.048-187.187 0.819-254.771 0-4.915-2.867-9.011-7.373-11.059s-9.421-1.229-13.107 2.048c-6.144 5.325-34.406 25.395-44.237 31.949-18.432 12.288-56.934 19.661-67.994 6.144 2.867-9.011 33.997-27.853 49.152-37.274 15.565-9.421 28.672-17.613 36.045-24.986 22.118-22.528 32.358-42.598 40.96-67.994 6.144-18.022 14.336-31.13 25.805-41.37 7.782-6.963 34.406-14.336 60.211-13.926 6.963 0 11.059 2.048 17.203 4.096 7.373 2.867 16.384 6.554 30.72 6.963s25.395-2.458 34.816-5.325c7.373-2.048 13.926-3.686 20.89-3.686 33.587 0.819 44.237 35.226 47.514 55.706 3.277 19.661 2.867 84.378 2.867 126.976 0 11.469 0 21.709 0 29.901 0 6.963 5.325 12.288 12.288 12.288 0 0 0 0 0 0 6.963 0 12.288-5.734 12.288-12.288 0-7.782 0-18.022 0-29.491 0-46.285 0.41-109.773-3.277-131.482-8.192-47.514-33.997-75.366-71.27-76.186-10.65-0.41-19.661 2.048-28.262 4.506s-17.203 4.915-27.443 4.506c-9.83-0.41-15.974-2.458-22.528-5.325-6.963-2.867-14.336-5.734-25.805-6.144 0 0.41-1.229 0.41-2.458 0.41zM790.528 375.91c-6.963 0-12.288 5.325-12.288 12.288 0 7.782-0.819 16.794-0.819 16.794 0 0.41 0 0.819 0 1.229 0 12.288-7.782 20.89-19.661 20.89-11.059 0-19.661-11.059-19.661-24.576 0-6.963-5.325-12.288-12.288-12.288s-12.288 5.325-12.288 12.288v9.421c0 13.926-9.83 27.853-19.661 27.853s-19.661-13.926-19.661-27.853c0-6.963-5.325-12.288-12.288-12.288v0c-6.963 0-12.288 5.325-12.288 12.288v9.421c0 13.926-9.83 27.853-19.661 27.853-11.059 0-19.661-11.059-19.661-24.576 0-6.963-5.325-12.288-12.288-12.288s-12.288 5.325-12.288 12.288c0 27.034 20.070 49.152 44.237 49.152 14.336 0 27.443-9.011 35.635-22.528 7.782 7.782 17.613 12.698 28.262 12.698 14.746 0 28.262-9.421 36.454-23.757 7.782 6.554 17.203 10.65 27.443 10.65 24.986 0 44.237-19.251 44.237-45.056 0-2.048 0.819-11.059 0.819-18.432 0-6.144-5.734-11.469-12.288-11.469z" />
<glyph unicode="&#xe90a;" glyph-name="chat" d="M697.549 325.12v368.64h-469.402v-368.64h89.293v-100.352c0-4.506 2.867-8.602 6.963-10.24 1.229-0.41 2.458-0.819 4.096-0.819 3.277 0 6.144 1.229 8.192 3.686l97.485 107.725h263.373zM421.069 343.962l-81.101-90.112v82.739c0 6.144-4.915 11.059-11.059 11.059h-78.234v323.584h424.346v-323.994h-245.76c-2.867 0-6.144-0.819-8.192-3.277zM339.968 559.821h256.819c3.277 0 5.734 2.458 5.734 5.734s-2.458 5.734-5.734 5.734h-256.819c-3.277 0-5.734-2.458-5.734-5.734s2.458-5.734 5.734-5.734zM339.968 515.174h256.819c3.277 0 5.734 2.458 5.734 5.734s-2.458 5.734-5.734 5.734h-256.819c-3.277 0-5.734-2.458-5.734-5.734s2.458-5.734 5.734-5.734zM602.522 475.853c0 3.277-2.458 5.734-5.734 5.734h-256.819c-3.277 0-5.734-2.458-5.734-5.734s2.458-5.734 5.734-5.734h256.819c3.277 0.41 5.734 2.867 5.734 5.734zM797.901 470.528h-67.174c-6.144 0-11.059-4.915-11.059-11.059s4.915-11.059 11.059-11.059h55.706v-167.526h-33.587c-6.144 0-11.059-4.915-11.059-11.059v-27.443l-34.406 35.635c-2.867 2.867-6.554 3.686-10.24 2.867 0 0 0 0 0 0h-122.88v22.528c0 6.144-4.915 11.059-11.059 11.059s-11.059-4.915-11.059-11.059v-33.587c0-6.144 4.915-11.059 11.059-11.059h132.301l15.155-15.565 34.406-36.864c2.048-2.458 5.325-3.686 8.192-3.686 1.229 0 2.867 0.41 4.096 0.819 4.096 1.638 6.963 5.734 6.963 10.24v44.646h33.587c6.144 0 11.059 4.915 11.059 11.059v190.054c0 5.734-4.915 11.059-11.059 11.059z" />
<glyph unicode="&#xe90b;" glyph-name="search" d="M765.133 241.152c-42.598 42.598-85.197 85.197-127.386 127.386 27.443 37.274 44.237 83.558 46.285 130.662 4.915 121.242-102.4 212.173-217.088 217.088-118.374 3.277-207.258-98.304-216.269-209.306-0.41-2.867-0.819-5.734-0.819-9.011 0-2.458 0-4.915 0.41-6.963 7.782-117.965 96.256-203.981 216.269-208.486 44.646-1.638 84.787 11.878 118.374 34.816 42.598-42.598 85.197-85.197 128.205-128.205 11.878-11.878 30.72-11.878 41.37 0 3.686 3.686 6.963 6.963 10.65 10.65 11.878 11.878 11.878 30.72 0 41.37zM465.715 340.275c-86.426-3.277-151.552 70.861-157.696 152.781 0.41 1.638 0.819 3.277 0.819 5.325 8.192 202.752 306.381 202.752 314.982 0 3.686-88.883-74.138-154.829-158.106-158.106z" />
<glyph unicode="&#xe90c;" glyph-name="network" d="M602.931 286.618c-1.229-0.41-2.458-0.819-3.686-1.638 13.926 17.613 25.805 40.141 33.997 66.355h64.307c1.229-0.41 2.458-0.819 4.096-0.819 4.506 0 8.602 2.458 11.059 6.554 15.565 29.491 23.757 62.669 23.757 96.256 0 114.278-92.979 207.258-207.258 207.258-38.912 0-77.005-11.059-109.773-31.539-5.734-3.686-7.373-11.059-3.686-16.794s11.059-7.373 16.794-3.686c9.83 6.144 20.070 11.059 30.72 15.155-17.613-20.070-31.949-48.333-41.37-81.51h-70.861c-1.229 0-2.458-0.41-3.686-0.41-4.096-0.819-7.782-3.277-9.421-7.373-10.65-25.395-16.384-52.838-16.384-80.691 0-114.278 92.979-207.258 207.258-207.258 29.082 0 57.344 6.144 83.968 17.613 6.144 2.867 9.011 9.83 6.144 16.384-2.458 6.144-9.83 9.011-15.974 6.144zM434.176 452.096c0 22.938 2.458 45.056 6.554 65.536h75.366v-141.722h-73.318c-5.325 23.757-8.602 49.152-8.602 76.186zM541.082 631.501c29.082-7.782 54.477-41.779 69.222-88.883h-69.222v88.883zM616.448 517.632c4.506-20.48 6.554-42.598 6.554-65.536 0-27.034-3.277-52.838-9.011-75.776h-73.318v141.312h75.776zM516.506 351.744v-79.053c-27.034 6.963-50.79 36.864-65.946 79.053h65.946zM541.082 272.691v79.053h65.946c-15.155-41.779-38.912-71.68-65.946-79.053zM641.843 517.632h58.163c7.373-20.070 11.469-41.37 11.469-63.898 0-26.624-6.144-53.248-17.203-77.414h-54.477c5.325 23.347 8.192 48.742 8.192 75.776 0 22.938-2.048 45.056-6.144 65.536zM688.538 542.208h-52.429c-9.421 33.587-23.757 61.44-41.37 81.51 40.141-15.155 73.318-44.237 93.798-81.51zM516.506 631.501v-89.293h-69.222c14.746 47.514 40.141 81.51 69.222 89.293zM357.581 517.632h58.163c-4.096-20.48-6.144-42.598-6.144-65.536 0-27.034 2.867-52.429 8.192-75.776h-53.248c-0.41 0-0.41 0-0.819 0-11.059 23.757-17.203 49.971-17.203 77.824-0.41 21.709 3.686 43.418 11.059 63.488zM377.651 351.744h47.104c8.192-26.214 20.070-49.152 33.997-66.355-33.178 13.926-61.44 36.864-81.101 66.355zM861.389 166.605l-26.214 33.178c-1.638 2.048-3.686 4.096-5.734 5.734 3.277 4.915 4.915 10.24 4.915 16.384v77.414c0 17.203-14.746 31.13-33.178 31.13h-111.411c-18.432 0-33.178-13.926-33.178-31.13v-77.414c0-6.554 2.048-12.698 6.144-17.613-1.638-1.638-3.277-2.867-4.506-4.506l-26.214-33.178c-7.782-9.83-5.325-18.022-3.686-21.299 2.867-6.144 9.421-9.83 16.794-9.83h203.162c7.782 0 13.926 3.686 16.794 9.83 1.638 3.277 4.096 11.469-3.686 21.299zM681.165 299.315c0 3.686 4.096 6.554 8.602 6.554h111.411c4.915 0 8.602-2.867 8.602-6.554v-77.414c0-3.686-4.096-6.554-8.602-6.554h-111.411c-4.915 0-8.602 2.867-8.602 6.554v77.414zM658.227 160.051l18.842 23.757c2.867 3.277 8.602 6.144 11.469 6.554 0.41 0 0.819 0 1.229 0h111.411c0.819 0 2.048 0 2.867 0 0 0 0.41 0 0.41 0 2.458 0 8.602-2.867 11.469-6.554l18.842-23.757h-176.538zM396.083 575.386c1.638 2.867 4.096 11.469-3.686 21.299l-26.214 33.178c-1.638 2.048-3.686 4.096-5.734 5.734 3.277 4.915 4.915 10.24 4.915 16.384v77.005c0 17.203-14.746 31.13-33.178 31.13h-111.411c-18.432 0-33.178-13.926-33.178-31.13v-77.414c0-6.554 2.048-12.698 6.144-17.613-1.638-1.638-3.277-2.867-4.506-4.506l-26.214-33.178c-7.782-9.83-5.325-18.022-3.686-21.299 2.867-6.144 9.421-9.83 16.794-9.83h203.162c7.373 0.41 13.926 4.096 16.794 10.24zM211.763 728.986c0 3.686 4.096 6.554 8.602 6.554h111.411c4.915 0 8.602-2.867 8.602-6.554v-77.414c0-3.686-4.096-6.554-8.602-6.554h-111.002c-4.915 0-8.602 2.867-8.602 6.554v77.414zM189.235 590.131l18.842 23.757c2.867 3.277 8.602 6.144 11.469 6.554 0.41 0 0.819 0 1.229 0h111.002c0.819 0 2.048 0 2.867 0 0 0 0.41 0 0.41 0 2.458 0 8.602-2.867 11.469-6.554l18.842-23.757h-176.128z" />
<glyph unicode="&#xe90d;" glyph-name="back" d="M292.864 464.384c-2.048-2.048-4.096-4.915-4.915-7.782 0 0 0-0.41 0-0.41-1.229-2.458-1.638-5.325-1.638-8.602s0.41-5.734 1.638-8.602c0 0 0-0.41 0-0.41 1.229-2.867 2.867-5.734 5.325-7.782l138.035-138.035c9.011-9.011 24.166-9.011 33.178 0 4.506 4.506 6.963 10.65 6.963 16.794s-2.458 11.878-6.963 16.794l-97.894 97.894h356.352c13.107 0 23.347 10.65 23.347 23.347 0 13.107-10.65 23.347-23.347 23.347h-356.352l98.304 98.304c4.506 4.506 6.963 10.65 6.963 16.794s-2.458 11.878-6.963 16.794c-9.011 9.011-24.166 9.011-33.178 0l-138.854-138.445zM132.71 448c0-211.354 172.032-383.386 383.386-383.386s383.386 172.032 383.386 383.386c0 211.354-172.032 383.386-383.386 383.386s-383.386-172.032-383.386-383.386zM852.378 448c0-185.549-150.733-336.282-336.282-336.282s-336.282 150.733-336.282 336.282 150.733 336.282 336.282 336.282 336.282-150.733 336.282-336.282z" />
<glyph unicode="&#xe90e;" glyph-name="animate" d="M736.051 647.885c0 123.699-100.352 224.051-224.051 224.051s-224.051-100.352-224.051-224.051c0-112.64 83.558-205.619 192.102-221.594v-50.381h-15.974v-31.949h15.974v-271.974c0-26.624 21.709-47.923 47.923-47.923 26.624 0 47.923 21.709 47.923 47.923v271.974h15.974v31.949h-15.974v57.344c92.57 27.853 160.154 113.459 160.154 214.63zM319.898 647.885c0 105.677 86.016 192.102 192.102 192.102s192.102-86.016 192.102-192.102-86.426-191.693-192.102-191.693-192.102 86.016-192.102 191.693zM543.949 71.987c0-9.011-6.963-15.974-15.974-15.974s-15.974 6.963-15.974 15.974v271.974h31.949v-271.974zM543.949 375.91h-31.949v47.923c11.059 0 21.709 1.229 31.949 2.458v-50.381zM512 776.090c59.392 0 109.363-40.55 123.699-95.437-22.528 25.805-64.717 63.488-123.699 63.488s-101.171-37.683-123.699-63.488c14.336 54.477 64.307 95.437 123.699 95.437zM388.301 615.526c22.528-25.805 64.717-63.488 123.699-63.488s101.171 37.683 123.699 63.488c-14.336-54.886-64.307-95.437-123.699-95.437s-109.363 40.55-123.699 95.437zM543.949 647.885c0-17.645-14.304-31.949-31.949-31.949s-31.949 14.304-31.949 31.949c0 17.645 14.304 31.949 31.949 31.949s31.949-14.304 31.949-31.949zM448.102 647.885c0 35.226 28.672 63.898 63.898 63.898-55.706 0-94.618-45.056-108.544-63.898 13.926-18.842 53.248-63.898 108.544-63.898-35.226 0-63.898 28.672-63.898 63.898zM512 711.782c35.226 0 63.898-28.672 63.898-63.898s-28.672-63.898-63.898-63.898c55.706 0 94.618 45.056 108.544 63.898-13.926 18.842-53.248 63.898-108.544 63.898z" />
<glyph unicode="&#xe90f;" glyph-name="next" d="M739.328 431.616c2.048 2.048 4.096 4.915 4.915 7.782 0 0 0 0.41 0 0.41 1.229 2.458 1.638 5.325 1.638 8.602s-0.41 5.734-1.638 8.602c0 0 0 0.41 0 0.41-1.229 2.867-2.867 5.734-5.325 7.782l-138.035 138.035c-9.011 9.011-24.166 9.011-33.178 0-4.506-4.506-6.963-10.65-6.963-16.794s2.458-11.878 6.963-16.794l97.894-97.894h-356.352c-13.107 0-23.347-10.65-23.347-23.347 0-13.107 10.65-23.347 23.347-23.347h356.352l-98.304-98.304c-4.506-4.506-6.963-10.65-6.963-16.794s2.458-11.878 6.963-16.794c9.011-9.011 24.166-9.011 33.178 0l138.854 138.445zM899.482 448c0 211.354-172.032 383.386-383.386 383.386s-383.386-172.032-383.386-383.386c0-211.354 172.032-383.386 383.386-383.386s383.386 172.032 383.386 383.386zM179.814 448c0 185.549 150.733 336.282 336.282 336.282s336.282-150.733 336.282-336.282-150.733-336.282-336.282-336.282-336.282 150.733-336.282 336.282z" />
<glyph unicode="&#xe910;" glyph-name="cellphone" d="M699.187 821.146h-374.374c-20.070 0-36.454-16.384-36.454-36.454v-672.973c0-20.070 16.384-36.454 36.454-36.454h374.374c20.070 0 36.454 16.384 36.454 36.454v672.973c0 19.661-16.794 36.454-36.454 36.454zM713.933 112.128c0-8.192-6.554-14.746-14.746-14.746h-374.374c-8.192 0-14.746 6.554-14.746 14.746v672.563c0 8.192 6.554 14.746 14.746 14.746h374.374c8.192 0 14.746-6.554 14.746-14.746v-672.563zM334.643 180.122h354.304v-21.709h-354.304v21.709zM482.099 773.632h58.573v-21.709h-58.573v21.709z" />
<glyph unicode="&#xe911;" glyph-name="exchange" d="M715.981 329.626v38.912c0 9.011-6.963 15.974-15.974 15.974h-186.368c-9.011 0-15.974-6.963-15.974-15.974v-38.912c0-7.782 5.734-14.746 13.517-15.974-7.782-1.229-13.517-7.782-13.517-15.155v-38.912c0-9.011 6.963-15.974 15.974-15.974h186.368c9.011 0 15.974 6.963 15.974 15.974v38.912c0 7.782-5.734 13.926-13.517 15.155 7.373 2.048 13.517 8.602 13.517 15.974zM528.794 270.234c-4.506 0-9.011 3.686-9.011 9.011 0 4.506 3.686 9.011 9.011 9.011s9.011-3.686 9.011-9.011c-0.819-4.915-4.915-9.011-9.011-9.011zM528.794 340.685c-4.506 0-9.011 3.686-9.011 9.011 0 4.506 3.686 9.011 9.011 9.011s9.011-3.686 9.011-9.011c-0.819-4.506-4.915-9.011-9.011-9.011zM557.466 270.234c-4.915 0-9.011 3.686-9.011 9.011 0 4.506 3.686 9.011 9.011 9.011s9.011-3.686 9.011-9.011-4.096-9.011-9.011-9.011zM557.466 340.685c-4.915 0-9.011 3.686-9.011 9.011 0 4.506 3.686 9.011 9.011 9.011s9.011-3.686 9.011-9.011c0-4.506-4.096-9.011-9.011-9.011zM684.032 270.234h-79.053c-4.915 0-9.011 3.686-9.011 9.011s3.686 9.011 9.011 9.011h79.053c4.915 0 9.011-3.686 9.011-9.011-0.41-4.915-4.096-9.011-9.011-9.011zM684.032 340.685h-79.053c-4.915 0-9.011 3.686-9.011 9.011s3.686 9.011 9.011 9.011h79.053c4.915 0 9.011-3.686 9.011-9.011-0.41-5.325-4.096-9.011-9.011-9.011zM483.738 332.902c-14.746-3.277-33.178-4.915-54.886-4.915-62.669 0-97.075 16.794-99.123 23.757v56.115c23.757-11.469 62.669-17.203 99.123-17.203 36.864 0 76.186 5.734 99.123 18.432v-10.24h21.709v38.502c0 0.819 0 1.229 0 1.229v83.149c0 0.819 0 1.229 0 1.229v83.558c0 31.949-62.669 45.875-120.832 45.875s-120.832-14.746-120.832-45.875v-83.149c0-0.819 0-2.048 0-2.458v0-82.33c0-0.819 0-1.229 0-2.458v0-82.33c0-31.13 62.669-45.875 120.832-45.875 19.661 0 40.141 2.048 58.163 4.915 0.819 0.819 0.819 2.048 1.229 2.458-3.277 4.506-4.506 10.24-4.506 15.974v1.638zM330.138 579.072c23.757-12.288 61.85-18.432 99.123-18.432 36.454 0 75.366 5.734 98.304 18.022h0.819v-55.706c0-6.963-34.406-24.166-99.123-24.166-62.669 0-97.075 16.794-99.123 23.757v56.525zM330.138 493.875c23.757-12.698 62.669-18.432 99.123-18.432 36.864 0 76.186 5.734 99.123 18.432v-55.706c0-6.963-34.406-24.166-99.123-24.166-62.669 0-97.075 16.794-99.123 23.757v56.115zM405.914 531.149c0-5.655-4.585-10.24-10.24-10.24s-10.24 4.585-10.24 10.24c0 5.655 4.585 10.24 10.24 10.24s10.24-4.585 10.24-10.24zM439.091 531.149c0-5.655-4.585-10.24-10.24-10.24s-10.24 4.585-10.24 10.24c0 5.655 4.585 10.24 10.24 10.24s10.24-4.585 10.24-10.24zM472.269 531.149c0-5.655-4.585-10.24-10.24-10.24s-10.24 4.585-10.24 10.24c0 5.655 4.585 10.24 10.24 10.24s10.24-4.585 10.24-10.24zM405.914 445.542c0-5.655-4.585-10.24-10.24-10.24s-10.24 4.585-10.24 10.24c0 5.655 4.585 10.24 10.24 10.24s10.24-4.585 10.24-10.24zM439.091 445.542c0-5.655-4.585-10.24-10.24-10.24s-10.24 4.585-10.24 10.24c0 5.655 4.585 10.24 10.24 10.24s10.24-4.585 10.24-10.24zM472.269 445.542c0-5.655-4.585-10.24-10.24-10.24s-10.24 4.585-10.24 10.24c0 5.655 4.585 10.24 10.24 10.24s10.24-4.585 10.24-10.24zM405.914 359.936c0-5.655-4.585-10.24-10.24-10.24s-10.24 4.585-10.24 10.24c0 5.655 4.585 10.24 10.24 10.24s10.24-4.585 10.24-10.24zM439.091 359.936c0-5.655-4.585-10.24-10.24-10.24s-10.24 4.585-10.24 10.24c0 5.655 4.585 10.24 10.24 10.24s10.24-4.585 10.24-10.24zM472.269 359.936c0-5.655-4.585-10.24-10.24-10.24s-10.24 4.585-10.24 10.24c0 5.655 4.585 10.24 10.24 10.24s10.24-4.585 10.24-10.24z" />
<glyph unicode="&#xe912;" glyph-name="infraestructura" d="M383.795 440.627h61.030c3.686-17.203 18.842-30.31 36.864-30.31h181.043c20.89 0 37.683 16.794 37.683 37.683s-16.794 37.683-37.683 37.683h-181.043c-18.022 0-33.587-13.107-36.864-30.31h-61.030v75.366h278.938c20.89 0 37.683 16.794 37.683 37.683s-16.794 37.683-37.683 37.683h-301.466c-20.89 0-37.683-16.794-37.683-37.683s16.794-37.683 37.683-37.683h7.373v-203.571c0-4.096 3.277-7.373 7.373-7.373h68.403c3.686-17.203 18.842-30.31 36.864-30.31h181.043c20.89 0 37.683 16.794 37.683 37.683s-16.794 37.683-37.683 37.683h-181.043c-18.022 0-33.587-13.107-36.864-30.31h-60.621v106.086z" />
<glyph unicode="&#xe913;" glyph-name="nube2" d="M662.323 364.442c5.734 0 11.059 4.915 11.059 11.059 0 5.734-4.915 11.059-11.059 11.059-5.734 0-11.059-4.915-11.059-11.059 0-5.734 5.325-11.059 11.059-11.059zM545.587 590.541v57.754c0 6.554-5.325 12.288-12.288 12.288s-12.288-5.325-12.288-12.288v-58.163c-17.613-2.048-34.816-7.373-47.923-17.203-13.517-9.011-24.576-20.89-31.949-35.226-8.192 4.096-16.384 6.554-26.214 6.554-15.565 0-28.672-5.325-39.322-16.384-10.65-10.65-16.384-24.166-16.384-39.322 0-6.554 1.229-12.698 3.277-19.251-12.698-4.915-23.347-12.698-31.949-24.166-11.059-14.336-17.203-31.13-17.203-49.152 0-21.709 8.192-40.55 22.938-55.296 15.565-15.565 33.997-22.938 55.296-22.938h130.253v-70.042c0-6.554 5.325-12.288 12.288-12.288s12.288 5.325 12.288 12.288v68.403h122.061c23.347 0 42.598 19.251 42.598 42.598v231.834h-165.478zM521.421 336.589h-129.024c-16.384 0-30.31 5.734-42.189 17.613s-17.613 25.805-17.613 42.189c0 13.926 4.096 26.214 12.698 37.274 8.602 10.65 19.661 17.613 33.178 20.89l13.517 3.277-7.373 11.878c-3.686 5.734-5.734 12.288-5.734 19.661 0 10.24 3.686 18.842 10.65 25.805s15.565 10.65 25.805 10.65c9.011 0 17.203-2.867 23.347-8.602l10.24-9.011 5.325 12.288c6.554 15.565 16.384 27.853 30.31 37.274 10.24 6.963 23.347 11.878 37.274 13.517l-0.41-234.701zM691.814 359.117c0-12.698-10.65-23.347-23.347-23.347h-122.88v69.222h146.227v-45.875zM691.814 424.243h-146.227v63.898h146.227v-63.898zM691.814 507.392h-146.227v64.307h146.227v-64.307zM662.323 447.59c5.734 0 11.059 4.915 11.059 11.059 0 5.734-4.915 11.059-11.059 11.059-5.734 0-11.059-4.915-11.059-11.059s5.325-11.059 11.059-11.059zM662.323 531.149c5.734 0 11.059 4.915 11.059 11.059 0 5.734-4.915 11.059-11.059 11.059-5.734 0-11.059-4.915-11.059-11.059s5.325-11.059 11.059-11.059z" />
<glyph unicode="&#xe914;" glyph-name="oficinas" d="M429.67 524.595c0-12.668-10.27-22.938-22.938-22.938s-22.938 10.27-22.938 22.938c0 12.668 10.27 22.938 22.938 22.938s22.938-10.27 22.938-22.938zM510.771 524.595c0-12.668-10.27-22.938-22.938-22.938s-22.938 10.27-22.938 22.938c0 12.668 10.27 22.938 22.938 22.938s22.938-10.27 22.938-22.938zM429.67 447.181c0-12.668-10.27-22.938-22.938-22.938s-22.938 10.27-22.938 22.938c0 12.668 10.27 22.938 22.938 22.938s22.938-10.27 22.938-22.938zM510.771 447.181c0-12.668-10.27-22.938-22.938-22.938s-22.938 10.27-22.938 22.938c0 12.668 10.27 22.938 22.938 22.938s22.938-10.27 22.938-22.938zM429.67 369.357c0-12.668-10.27-22.938-22.938-22.938s-22.938 10.27-22.938 22.938c0 12.668 10.27 22.938 22.938 22.938s22.938-10.27 22.938-22.938zM510.771 369.357c0-12.668-10.27-22.938-22.938-22.938s-22.938 10.27-22.938 22.938c0 12.668 10.27 22.938 22.938 22.938s22.938-10.27 22.938-22.938zM599.654 419.328h46.285c7.373 0 13.926 6.554 13.926 13.926s-6.554 13.926-13.926 13.926h-46.285c-7.373 0-13.926-6.554-13.926-13.926s6.554-13.926 13.926-13.926zM599.654 373.043h46.285c7.373 0 13.926 6.554 13.926 13.926s-6.554 13.926-13.926 13.926h-46.285c-7.373 0-13.926-6.554-13.926-13.926s6.554-13.926 13.926-13.926zM599.654 327.168h46.285c7.373 0 13.926 6.554 13.926 13.926s-6.554 13.926-13.926 13.926h-46.285c-7.373 0-13.926-6.554-13.926-13.926 0-7.782 6.554-13.926 13.926-13.926zM715.162 300.134h-13.926v161.792c0 22.938-18.432 41.37-41.37 41.37h-73.728c-4.506 0-9.421-0.819-13.926-2.867v81.51c0 22.938-18.432 41.37-41.37 41.37h-166.707c-22.938 0-41.37-18.432-41.37-41.37v-281.805h-13.926c-7.373 0-13.926-6.554-13.926-13.926s6.554-13.926 13.926-13.926h406.323c7.373 0 13.926 6.554 13.926 13.926s-6.554 13.926-13.926 13.926zM585.728 475.853h73.728c7.373 0 13.926-6.554 13.926-13.926v-161.792h-101.581v161.792c0.41 7.373 6.554 13.926 13.926 13.926zM350.208 581.939c0 7.373 6.554 13.926 13.926 13.926h166.298c7.373 0 13.926-6.554 13.926-13.926v-281.805h-194.15v281.805z" />
<glyph unicode="&#xe915;" glyph-name="plataforma_escalable" d="M483.738 588.083c5.325 0 9.83 4.506 9.83 9.83s-4.506 9.83-9.83 9.83c-5.325 0-9.83-4.506-9.83-9.83s4.096-9.83 9.83-9.83zM483.738 597.504l-0.819 0.819 0.819 0.819 0.819-0.819-0.819-0.819zM367.002 603.238v0 0zM530.842 390.656v0 0zM283.034 332.902v0 0zM516.506 359.526h-65.946c-4.096 0-7.373-3.277-7.373-7.373s3.277-7.373 7.373-7.373h65.946c4.096 0 7.373 3.277 7.373 7.373s-3.277 7.373-7.373 7.373zM329.318 565.555v0 0zM334.234 563.507c2.048 0 3.686 0.819 5.325 2.048l27.443 27.443c1.229 1.229 2.048 3.277 2.048 5.325s-0.819 3.686-2.048 5.325c-1.229 1.229-3.277 2.048-5.325 2.048s-3.686-0.819-5.325-2.048l-27.443-27.443c-1.229-1.229-2.048-3.277-2.048-5.325s0.819-3.686 2.048-5.325c1.638-1.229 3.686-2.048 5.325-2.048zM593.101 374.682v0 0zM679.526 477.901v0c-6.144 2.458-12.698 4.506-19.251 5.734v124.109c0 11.059-9.011 19.661-20.070 19.661h-313.344c-11.059 0-19.661-9.011-20.070-19.661v-225.28c0-1.638 0.41-3.686 0.819-5.325h-24.166c-2.048 0-4.096-0.819-5.734-2.458-1.229-1.229-1.638-2.867-1.638-4.506 0-0.41 0-0.819 0-1.229l6.144-35.635c0.819-3.686 3.686-6.144 7.373-6.144h252.723c18.022-34.816 54.477-58.573 96.256-58.573 59.802 0 108.544 48.742 108.544 108.544 0.41 44.646-26.214 84.378-67.584 100.762zM296.141 341.504l-3.686 20.89h238.797c0.819-7.373 2.867-14.336 4.915-20.89h-240.026zM321.536 605.696v2.048c0 2.867 2.458 5.325 5.325 5.325h313.344c2.867 0 5.325-2.458 5.325-5.325v-122.061c-2.048 0-4.506 0.41-6.554 0.41-54.886 0-101.171-40.96-107.725-95.027-0.41-4.506-0.819-9.011-0.819-13.517h-203.571c-2.867 0-5.325 2.458-5.325 5.325v222.822zM638.976 283.341c-25.805 0-49.562 10.65-66.355 27.443-17.203 17.203-27.443 40.55-27.443 66.355 0 4.096 0.41 7.782 0.819 11.878 5.734 47.104 45.875 82.33 93.389 82.33 12.288 0 23.757-2.458 35.226-6.963 35.635-14.336 58.982-48.742 58.982-87.245 0-25.805-10.65-49.562-27.443-66.355-18.022-17.203-41.37-27.443-67.174-27.443zM693.862 412.365v0c-1.229 1.229-2.867 1.638-4.915 1.638s-4.096-0.819-5.734-2.458v0l-54.886-64.717-35.226 28.262c-1.229 1.229-2.867 1.638-4.506 1.638-2.048 0-4.096-0.819-5.734-2.867v0c-1.229-1.229-1.638-2.867-1.638-4.506 0-2.048 0.819-4.096 2.867-5.734l40.96-32.768c1.229-1.229 2.867-1.638 4.506-1.638 2.048 0 4.096 0.819 5.734 2.458v0l59.802 70.451c1.229 1.229 1.638 2.867 1.638 4.915-0.41 1.638-1.229 3.686-2.867 5.325zM333.414 535.245c2.048 0 3.686 0.819 5.325 2.048l56.934 56.934c1.229 1.229 2.048 3.277 2.048 5.325s-0.819 3.686-2.048 5.325c-1.229 1.229-3.277 2.048-5.325 2.048s-3.686-0.819-5.325-2.048l-56.934-56.934c-1.229-1.229-2.048-3.277-2.048-5.325s0.819-3.686 2.048-5.325c1.638-1.229 3.277-2.048 5.325-2.048zM328.090 537.293v0 0z" />
<glyph unicode="&#xe916;" glyph-name="proteccion" d="M718.438 375.091h-12.288v24.166c0 34.406-24.166 63.488-56.525 70.861 4.915 29.082 8.192 62.259 8.192 99.123 0 4.506-2.458 8.602-6.554 10.65l-170.394 85.197c-3.277 1.638-7.373 1.638-10.65 0l-169.984-84.787c-4.096-2.048-6.554-6.144-6.554-10.65 0-147.456 47.923-231.424 88.064-276.070 44.237-49.152 88.883-62.669 90.522-63.078 1.229-0.41 2.458-0.41 3.277-0.41s2.458 0 3.277 0.41c1.229 0.41 26.214 7.782 57.344 31.949v-20.48c0-6.554 5.325-12.288 12.288-12.288h169.984c6.554 0 12.288 5.325 12.288 12.288v121.242c-0.41 6.554-5.734 11.878-12.288 11.878zM681.984 399.258v-24.166h-97.075v24.166c0 26.624 21.709 48.333 48.333 48.333 27.034 0.41 48.742-21.299 48.742-48.333zM536.166 363.213v-69.222c-27.034-24.986-52.019-36.045-60.621-39.322-22.938 8.602-154.829 69.632-157.696 307.2l157.696 78.643 157.696-79.053c-0.41-31.949-3.277-61.85-8.192-90.112-36.045-4.096-64.307-34.816-64.307-72.499v-24.166h-12.288c-6.554 0.41-12.288-4.915-12.288-11.469zM706.15 253.85h-145.408v97.075h145.408v-97.075zM550.093 486.093c-4.096 4.096-10.65 4.096-14.336 0l-74.957-74.957-33.587 33.587c-4.096 4.096-10.65 4.096-14.336 0-4.096-4.096-4.096-10.65 0-14.336l40.96-40.96c2.048-2.048 4.506-2.867 7.373-2.867s5.325 0.819 7.373 2.867l81.92 81.92c3.277 4.096 3.277 10.65-0.41 14.746z" />
<glyph unicode="&#xe917;" glyph-name="server" d="M387.072 583.168c-17.203 0-31.13 13.926-31.13 31.13s13.926 31.13 31.13 31.13 31.13-13.926 31.13-31.13-13.926-31.13-31.13-31.13zM387.072 624.947c-5.734 0-10.24-4.506-10.24-10.24s4.506-10.24 10.24-10.24 10.24 4.506 10.24 10.24-4.506 10.24-10.24 10.24zM387.072 458.24c-17.203 0-31.13 13.926-31.13 31.13s13.926 31.13 31.13 31.13 31.13-13.926 31.13-31.13-13.926-31.13-31.13-31.13zM387.072 500.019c-5.734 0-10.24-4.506-10.24-10.24s4.506-10.24 10.24-10.24 10.24 4.506 10.24 10.24-4.506 10.24-10.24 10.24zM387.072 333.722c-17.203 0-31.13 13.926-31.13 31.13s13.926 31.13 31.13 31.13 31.13-13.926 31.13-31.13-13.926-31.13-31.13-31.13zM387.072 375.091c-5.734 0-10.24-4.506-10.24-10.24s4.506-10.24 10.24-10.24 10.24 4.506 10.24 10.24-4.506 10.24-10.24 10.24zM668.058 291.942c-5.734 0-10.24 4.506-10.24 10.24 0 22.938-18.842 41.779-41.779 41.779s-41.779-18.842-41.779-41.779c0-5.734-4.506-10.24-10.24-10.24s-10.24 4.506-10.24 10.24c0 34.406 27.853 62.259 62.259 62.259s62.259-27.853 62.259-62.259c0-5.734-4.506-10.24-10.24-10.24zM616.038 281.702c-2.867 0-5.325 0.819-7.373 2.867-4.096 4.096-4.096 10.65 0 14.746l14.746 14.746c4.096 4.096 10.65 4.096 14.746 0s4.096-10.65 0-14.746l-14.746-14.746c-2.048-2.048-4.915-2.867-7.373-2.867zM626.278 395.571c0 0.41 0 0.41 0 0.41v260.096c0 17.203-13.926 31.13-31.13 31.13h-249.856c-17.203 0-31.13-13.926-31.13-31.13v-333.005c0-17.203 13.926-31.13 31.13-31.13h177.357c5.325-46.694 45.056-83.149 92.979-83.149 51.61 0 93.798 42.189 93.798 93.798 0.41 47.923-36.454 87.654-83.149 92.979zM335.053 541.798h270.336v-104.038h-270.336v104.038zM345.702 666.317h249.856c5.734 0 10.24-4.506 10.24-10.24v-93.798h-270.336v93.798c-0.41 5.734 4.506 10.24 10.24 10.24zM335.053 323.072v93.798h270.336v-20.89c0-0.41 0-0.41 0-0.41-43.418-4.915-77.824-39.322-82.739-82.739h-176.947c-5.734 0-10.65 4.506-10.65 10.24zM616.038 229.683c-40.141 0-72.909 32.768-72.909 72.909s32.768 72.909 72.909 72.909c40.141 0 72.909-32.768 72.909-72.909s-32.768-72.909-72.909-72.909z" />
<glyph unicode="&#xe918;" glyph-name="sistema_unificado" d="M593.101 437.35l-6.554 1.229 3.277 4.915c5.734 7.373 4.915 17.203-1.229 23.757l-17.203 17.203c-6.144 6.144-16.384 6.963-23.347 1.638l-5.734-3.686-0.819 5.734c-1.229 9.011-9.011 15.565-18.022 15.974h-23.757c-9.011 0-16.384-6.144-18.022-14.746l-1.229-6.963-4.915 3.277c-7.373 5.734-17.203 4.915-23.757-1.229l-17.203-17.203c-6.144-6.144-6.963-16.384-1.638-23.347l3.686-5.734-6.144-0.819c-9.011-1.229-15.565-9.011-15.974-18.022v-23.757c0-9.011 6.554-16.794 15.974-18.022l6.554-1.229-3.277-4.915c-5.734-7.373-4.915-17.203 1.229-23.757l17.203-17.203c3.277-3.277 8.192-5.325 12.698-4.915 3.686 0 7.782 1.229 10.65 3.277l5.734 3.686 0.819-6.144c1.229-9.011 9.011-15.565 18.022-15.974h23.757c9.011 0 16.794 6.554 18.022 15.974l1.229 6.554 4.915-3.277c3.277-2.458 6.963-3.686 11.059-3.686 4.915 0 9.421 1.638 12.698 4.915l17.203 17.203c6.144 6.144 6.963 16.384 1.638 23.347l-3.686 5.734 6.144 0.819c9.011 1.229 15.565 9.011 15.974 18.022v23.347c0 9.011-6.963 16.794-15.974 18.022zM591.462 395.571c0-0.41-0.41-0.819-1.229-1.229l-19.661-3.277c-4.506-0.819-7.782-5.325-6.963-9.83 0.41-1.229 0.819-2.458 1.229-3.277l11.878-16.794c0.41-0.41 0.41-0.819 0-1.229 0 0 0 0 0 0l-17.203-17.203c-0.41-0.41-0.819-0.41-1.638 0l-16.384 11.878c-3.686 2.867-9.011 1.638-11.878-2.048-0.819-0.819-1.229-2.048-1.229-3.277l-3.686-20.070-0.819-0.819h-23.757c-0.41 0-0.819 0.41-1.229 1.229l-3.277 19.661c-0.41 2.867-2.458 5.325-4.915 6.554l-3.277 0.819c-2.048 0-3.686-0.41-4.915-1.638l-16.794-11.878h-1.229l-17.203 17.203c-0.41 0.41-0.41 0.819 0 1.638l11.469 16.384c2.867 3.686 1.638 9.011-2.048 11.878-0.819 0.819-2.048 1.229-3.277 1.229l-20.48 3.277c-0.41 0-0.819 0.41-0.819 0.819v0 23.757c0 0.41 0.41 0.819 1.229 1.229l19.661 3.277c4.506 0.819 7.782 5.325 6.963 9.83-0.41 1.229-0.819 2.458-1.229 3.277l-11.878 16.794c-0.41 0.41-0.41 0.819 0 1.229 0 0 0 0 0 0l17.203 17.203c0.41 0.41 0.819 0.41 1.638 0l17.613-11.878c3.686-2.867 9.011-1.638 11.878 2.048 0.819 0.819 1.229 2.048 1.229 3.277l3.686 20.48 0.819 0.819h23.757c0.41 0 0.819-0.41 1.229-1.229l3.277-19.661c0.41-4.506 4.915-7.782 9.421-7.373 1.229 0 2.458 0.819 3.686 1.229l16.794 11.878h1.229l17.203-17.203c0.41-0.41 0.41-0.819 0-1.638l-11.469-16.384c-2.867-3.686-1.638-9.011 2.048-11.878 0.819-0.819 2.048-1.229 3.277-1.229l20.070-3.277h0.41c0.41 0 0.819-0.41 0.819-0.819l-1.229-23.757zM512 448.819c-22.938 0-41.37-18.432-41.37-41.37s18.432-41.37 41.37-41.37c22.938 0 41.37 18.432 41.37 41.37s-18.432 41.37-41.37 41.37v0zM512 383.283c-13.517 0-24.166 11.059-24.166 24.166 0 13.517 11.059 24.166 24.166 24.166 13.517 0 24.166-11.059 24.166-24.166 0-13.517-10.65-24.166-24.166-24.166v0zM698.368 626.176h-372.736v-356.762h372.736v356.762zM681.574 609.382v-59.802h-339.149v59.802h339.149zM342.426 286.618v245.76h338.739v-245.76h-338.739zM380.928 588.083h27.034v-17.203h-27.034v17.203z" />
<glyph unicode="&#xe919;" glyph-name="soporte" d="M678.298 382.464v-43.418h15.565v43.418zM342.016 423.424h182.682l-108.954 104.858c-4.096 4.096-9.421 6.144-15.155 6.144-5.325 0-11.059-2.048-15.155-6.144l-102.81-103.219 103.219-103.219c4.096-4.096 9.421-6.144 15.155-6.144 5.325 0 10.65 2.048 14.746 5.734l88.883 70.042v-104.038c0-3.277-2.458-5.734-5.734-5.734h-195.379c-3.277 0-5.734 2.458-5.734 5.734v99.533h-15.565v-99.533c0-11.878 9.421-21.299 21.299-21.299h195.379c11.878 0 21.299 9.421 21.299 21.299v135.987l-115.098-90.522c-1.229-1.229-2.458-1.638-4.096-1.638s-2.867 0.41-4.096 1.638l-92.57 92.57 92.57 92.16c1.229 1.229 2.458 1.638 4.096 1.638s2.867-0.41 4.096-1.638v0l81.51-78.643h-144.589v-15.565zM720.486 407.859h-182.682v-15.565h182.682c3.277 0 5.734-2.458 5.734-5.734v-49.971c0-3.277-2.458-5.734-5.734-5.734h-182.682v-15.565h182.682c11.878 0 21.299 9.421 21.299 21.299v0 49.971c0 11.469-9.421 20.89-21.299 21.299zM323.174 537.702h396.083c11.878 0 21.299 9.421 21.299 21.299v49.562c0 11.878-9.421 21.299-21.299 21.299h-396.083c-11.878 0-21.299-9.421-21.299-21.299v-49.971c0-11.469 9.421-20.89 21.299-20.89zM317.44 608.563c0 3.277 2.458 5.734 5.734 5.734h396.083c3.277 0 5.734-2.458 5.734-5.734v-49.971c0-3.277-2.458-5.734-5.734-5.734h-396.083c-3.277 0-5.734 2.458-5.734 5.734v49.971zM566.886 591.36h-218.726v-15.155h218.726zM693.862 565.146v41.779h-75.366v-15.155h59.802v-14.336h-59.802v-15.565h75.366zM317.44 472.576v22.118c0 3.277 2.458 5.734 5.734 5.734h24.166v15.565h-24.166c-11.878 0-21.299-9.421-21.299-21.299v-25.395h15.565v3.277zM540.672 423.424h178.586c11.878 0 21.299 9.421 21.299 21.299v49.971c0 11.878-9.421 21.299-21.299 21.299h-276.48l59.802-54.067h63.898v15.565h-58.163l-25.395 22.938h235.93c3.277 0 5.734-2.458 5.734-5.734v-49.971c0-3.277-2.458-5.734-5.734-5.734h-178.176v-15.565zM618.496 463.565v-15.565h75.366v45.056h-75.366v-15.565h59.802v-13.926zM655.77 382.464v-43.418h15.155v43.418zM632.832 382.464v-43.418h15.565v43.418zM610.304 382.464v-43.418h15.565v43.418zM587.776 382.464v-43.418h15.565v43.418zM565.248 382.464v-43.418h15.565v43.418z" />
<glyph unicode="&#xe91a;" glyph-name="check2" d="M355.533 425.062l116.736-93.798c4.096-2.867 8.602-4.096 12.698-4.096 5.734 0 11.469 2.867 15.565 6.963l170.394 200.294c6.963 8.602 6.963 22.938-2.867 29.901-8.602 6.963-22.938 6.963-29.901-2.867l-157.696-184.73-100.762 79.462c-8.602 6.963-22.938 5.734-29.901-2.867-4.096-6.963-2.458-21.299 5.734-28.262zM628.736 736.358c-36.864 14.336-75.366 22.938-116.736 22.938-156.467 0-289.997-116.736-308.429-272.794-1.229-12.698-2.867-25.395-2.867-38.502 0-172.032 139.264-311.296 311.296-311.296s311.296 139.264 311.296 311.296c0 127.795-76.595 241.664-194.56 288.358zM513.229 179.302c-147.866 0-268.698 120.832-268.698 268.698-1.229 11.469-1.229 22.938 0 33.997 17.203 133.53 130.662 235.93 267.059 235.93 33.997 0 68.403-6.963 100.762-20.070 102.4-41.37 169.165-139.264 169.165-250.266 0.41-147.456-120.422-268.288-268.288-268.288z" />
<glyph unicode="&#xe91b;" glyph-name="mail" d="M208.896 642.15v-388.301h606.208v388.301h-606.208zM756.122 611.84l-244.122-190.054-244.122 190.054h488.243zM239.206 284.16c0 0 0 283.443 0 312.115l272.794-212.992 272.794 212.992v-312.115h-545.587z" />
<glyph unicode="&#xe91c;" glyph-name="twitter" d="M390.349 181.35c247.398 0 382.976 205.21 382.976 382.976 0 5.734 0 11.469-0.41 17.203 26.214 18.842 49.152 42.598 67.174 69.632-24.166-10.65-49.971-18.022-77.414-21.299 27.853 16.794 49.152 43.008 59.392 74.547-25.805-15.565-54.886-26.624-85.606-32.768-24.576 26.214-59.392 42.598-98.304 42.598-74.138 0-134.758-60.211-134.758-134.349 0-10.65 1.229-20.89 3.277-30.72-111.821 5.734-210.944 59.392-277.299 140.493-11.469-20.070-18.022-43.008-18.022-67.584 0-46.694 23.757-88.064 59.802-112.23-22.118 0.819-43.008 6.554-61.030 16.794 0-0.41 0-1.229 0-1.638 0-65.126 46.285-119.603 108.134-131.891-11.059-2.867-23.347-4.915-35.226-4.915-8.602 0-17.203 0.819-25.395 2.458 17.203-53.658 66.765-92.57 125.747-93.389-45.875-36.045-104.038-57.754-167.117-57.754-10.65 0-21.709 0.819-31.949 2.048 59.392-37.683 129.843-60.211 206.029-60.211z" />
<glyph unicode="&#xe91d;" glyph-name="facebook" d="M618.906 676.557h72.499v114.278h-108.954c0 0-68.403 1.638-112.23-54.886 0 0-29.901-27.853-30.31-110.182v0-85.606h-107.315v-121.242h107.725v-313.344h124.109v313.344h106.906l14.746 121.242h-121.651v85.197c0 9.83 4.506 52.019 54.477 51.2z" />
<glyph unicode="&#xe91e;" glyph-name="formacion" d="M214.63 616.346h118.784c2.458 0 5.325 1.229 6.963 2.867s2.867 4.506 2.867 6.963v118.784c0 2.458-1.229 5.325-2.867 6.963-1.638 2.048-4.506 2.867-6.963 2.867h-118.784c-2.458 0-5.325-1.229-6.963-2.867-1.638-2.048-2.867-4.506-2.867-6.963v-118.784c0-2.458 1.229-5.325 2.867-6.963 2.048-1.638 4.506-2.867 6.963-2.867zM224.461 735.539h99.123v-99.123h-99.123v99.123zM442.778 626.176c0-2.458 1.229-5.325 2.867-6.963 2.048-2.048 4.506-2.867 6.963-2.867h118.784c2.458 0 5.325 1.229 6.963 2.867 1.638 2.048 2.867 4.506 2.867 6.963v118.784c0 2.458-1.229 5.325-2.867 6.963-1.638 2.048-4.506 2.867-6.963 2.867h-118.784c-2.458 0-5.325-1.229-6.963-2.867-1.638-2.048-2.867-4.506-2.867-6.963v-118.784zM462.438 735.539h99.123v-99.123h-99.123v99.123zM809.37 755.2h-118.784c-2.458 0-5.325-1.229-6.963-2.867s-2.867-4.506-2.867-6.963v-118.784c0-2.458 1.229-5.325 2.867-6.963 1.638-2.048 4.506-2.867 6.963-2.867h118.784c2.458 0 5.325 1.229 6.963 2.867 1.638 2.048 2.867 4.506 2.867 6.963v118.784c0 2.458-1.229 5.325-2.867 6.963-2.048 1.638-4.506 2.867-6.963 2.867zM799.539 636.416h-99.123v99.123h99.123v-99.123zM214.63 378.778h118.784c2.458 0 5.325 1.229 6.963 2.867s2.867 4.506 2.867 6.963v118.784c0 2.458-1.229 5.325-2.867 6.963s-4.506 2.867-6.963 2.867h-118.784c-2.458 0-5.325-1.229-6.963-2.867-2.048-2.048-2.867-4.506-2.867-6.963v-118.784c0-2.458 1.229-5.325 2.867-6.963 2.048-2.048 4.506-2.867 6.963-2.867zM224.461 497.562h99.123v-99.123h-99.123v99.123zM442.778 388.608c0-2.458 1.229-5.325 2.867-6.963 2.048-2.048 4.506-2.867 6.963-2.867h118.784c2.458 0 5.325 1.229 6.963 2.867s2.867 4.506 2.867 6.963v118.784c0 2.458-1.229 5.325-2.867 6.963s-4.506 2.867-6.963 2.867h-118.784c-2.458 0-5.325-1.229-6.963-2.867-1.638-2.048-2.867-4.506-2.867-6.963v-118.784zM462.438 497.562h99.123v-99.123h-99.123v99.123zM809.37 517.222h-118.784c-2.458 0-5.325-1.229-6.963-2.867-2.048-1.638-2.867-4.506-2.867-6.963v-118.784c0-2.458 1.229-5.325 2.867-6.963 1.638-2.048 4.506-2.867 6.963-2.867h118.784c2.458 0 5.325 1.229 6.963 2.867 2.048 1.638 2.867 4.506 2.867 6.963v118.784c0 2.458-1.229 5.325-2.867 6.963-2.048 2.048-4.506 2.867-6.963 2.867zM799.539 398.438h-99.123v99.123h99.123v-99.123zM214.63 140.8h118.784c2.458 0 5.325 1.229 6.963 2.867s2.867 4.506 2.867 6.963v118.784c0 2.458-1.229 5.325-2.867 6.963s-4.506 2.867-6.963 2.867h-118.784c-2.458 0-5.325-1.229-6.963-2.867-2.048-2.048-2.867-4.506-2.867-6.963v-118.784c0-2.458 1.229-5.325 2.867-6.963 2.048-1.638 4.506-2.867 6.963-2.867zM224.461 259.584h99.123v-99.123h-99.123v99.123zM442.778 150.63c0-2.458 1.229-5.325 2.867-6.963 2.048-2.048 4.506-2.867 6.963-2.867h118.784c2.458 0 5.325 1.229 6.963 2.867s2.867 4.506 2.867 6.963v118.784c0 2.458-1.229 5.325-2.867 6.963s-4.506 2.867-6.963 2.867h-118.784c-2.458 0-5.325-1.229-6.963-2.867-1.638-2.048-2.867-4.506-2.867-6.963v-118.784zM462.438 259.584h99.123v-99.123h-99.123v99.123zM809.37 279.654h-118.784c-2.458 0-5.325-1.229-6.963-2.867-2.048-2.048-2.867-4.506-2.867-6.963v-118.784c0-2.458 1.229-5.325 2.867-6.963s4.506-2.867 6.963-2.867h118.784c2.458 0 5.325 1.229 6.963 2.867s2.867 4.506 2.867 6.963v118.784c0 2.458-1.229 5.325-2.867 6.963-2.048 1.638-4.506 2.867-6.963 2.867zM799.539 160.461h-99.123v99.123h99.123v-99.123z" />
<glyph unicode="&#xe91f;" glyph-name="formato" d="M327.68 512.307h-122.88v-128.614h122.88v128.614zM308.838 401.715h-85.197v91.75h85.197v-91.75zM819.2 512.307h-415.744v-128.614h415.744v128.614zM800.358 401.715h-378.061v91.75h378.061v-91.75zM327.68 720.384h-122.88v-128.614h122.88v128.614zM308.838 609.792h-85.197v91.341h85.197v-91.341zM819.2 720.384h-415.744v-128.614h415.744v128.614zM800.358 609.792h-378.061v91.341h378.061v-91.341zM204.8 175.616h122.88v128.614h-122.88v-128.614zM223.642 194.867v91.75h85.197v-91.75zM403.456 175.616h415.744v128.614h-415.744v-128.614zM422.298 286.208h378.061v-91.75h-378.061v91.75z" />
<glyph unicode="&#xe920;" glyph-name="size_font" d="M610.304 350.106h-208.077l-43.008-97.894h-57.754l177.357 391.578h55.296l177.766-391.578h-58.573l-43.008 97.894zM590.643 394.752l-84.378 192.102-84.378-192.102h168.755z" />
<glyph unicode="&#xe921;" glyph-name="mail-01" d="M385.434 480.768h126.566c4.096 0 7.373 3.277 7.373 7.373s-3.277 7.373-7.373 7.373h-126.566c-4.096 0-7.373-3.277-7.373-7.373s3.277-7.373 7.373-7.373zM638.566 439.398h-253.133c-4.096 0-7.373-3.277-7.373-7.373s3.277-7.373 7.373-7.373h252.723c4.096 0 7.373 3.277 7.373 7.373 0.41 4.096-2.867 7.373-6.963 7.373zM638.566 383.693h-253.133c-4.096 0-7.373-3.277-7.373-7.373s3.277-7.373 7.373-7.373h252.723c4.096 0 7.373 3.277 7.373 7.373s-2.867 7.373-6.963 7.373zM807.731 475.034c0 0 0 0 0 0l-0.41 0.41c-1.638 2.048-3.686 3.686-5.734 5.734l-238.797 237.978c-13.517 13.517-31.949 21.299-51.2 21.299s-37.683-7.373-51.2-21.299l-238.387-238.387c-2.048-1.638-3.686-3.686-5.734-5.734v0c0 0-0.41-0.41-0.41-0.41-6.963-8.602-11.059-19.251-11.059-31.13v-239.206c0-26.624 21.709-48.742 48.742-48.742h516.915c26.624 0 48.742 21.709 48.742 48.742v239.616c0 11.878-4.096 22.528-11.469 31.13zM471.040 708.506c11.059 11.059 25.395 16.794 40.96 16.794s29.901-6.144 40.96-16.794l226.918-226.509-69.222-69.222v93.798c0 26.624-21.709 48.742-48.742 48.742h-299.827c-26.624 0-48.742-21.709-48.742-48.742v-93.798l-69.222 69.222 226.918 226.509zM695.91 506.573v-108.544l-143.36-142.95c-11.059-11.059-25.395-16.794-40.96-16.794s-29.901 6.144-40.96 16.794l-143.36 142.95v108.544c0 18.842 15.155 33.997 33.997 33.997h300.237c19.251 0.41 34.406-15.155 34.406-33.997zM804.454 204.698c0-10.24-4.506-19.251-11.878-25.805l-128.614 128.614c-2.867 2.867-7.373 2.867-10.24 0v0c-2.867-2.867-2.867-7.373 0-10.24l124.518-124.518h4.506c-3.686-1.638-7.782-2.458-12.288-2.458h-516.915c-4.096 0-8.192 0.819-12.288 2.458h4.506l124.518 124.518c2.867 2.867 2.867 7.373 0 10.24v0c-2.867 2.867-7.373 2.867-10.24 0l-128.614-128.614c-7.373 6.144-11.878 15.565-11.878 25.805v239.206c0 11.469 5.734 21.709 14.746 27.853l226.918-226.918c13.517-13.517 31.949-21.299 51.2-21.299s37.683 7.373 51.2 21.299l226.918 226.918c9.011-6.144 14.746-16.384 14.746-27.853v-239.206z" />
<glyph unicode="&#xe922;" glyph-name="print.ai" d="M774.144 457.011h-117.555v190.874c0 2.048-0.819 4.096-2.048 5.325l-27.443 35.635-26.624 35.635c-1.638 2.048-3.686 2.867-6.144 3.277-0.41 0-1.229 0.41-1.638 0.41h-216.269c-4.915 0-9.011-4.096-9.011-9.011v-262.144h-117.555c-24.986 0-45.056-20.48-45.056-45.056v-198.656c0-24.986 20.070-45.056 45.056-45.056h524.288c24.986 0 45.056 20.070 45.056 45.056v198.656c0 24.986-20.070 45.056-45.056 45.056zM629.555 655.667h-27.034v35.635l10.24-13.107 16.794-22.528zM385.434 710.144h198.656v-63.078c0-4.915 4.096-9.011 9.011-9.011h45.056v-253.133h-252.723v325.222zM331.366 185.856v36.045h361.267v-36.045h-361.267zM801.178 212.89c0-14.746-12.288-27.034-27.034-27.034h-63.078v45.056c0 4.915-4.096 9.011-9.011 9.011h-379.699c-4.915 0-9.011-4.096-9.011-9.011v-45.056h-63.488c-14.746 0-27.034 12.288-27.034 27.034v198.656c0 14.746 12.288 27.034 27.034 27.034h117.555v-63.078c0-4.915 4.096-9.011 9.011-9.011h271.155c4.915 0 9.011 4.096 9.011 9.011v63.078h117.555c14.746 0 27.034-12.288 27.034-27.034v-198.656zM584.090 601.6h-144.589c-4.915 0-9.011 4.096-9.011 9.011s4.096 9.011 9.011 9.011h144.589c4.915 0 9.011-4.096 9.011-9.011 0.41-4.915-3.686-9.011-9.011-9.011zM584.090 547.533h-144.589c-4.915 0-9.011 4.096-9.011 9.011s4.096 9.011 9.011 9.011h144.589c4.915 0 9.011-4.096 9.011-9.011s-3.686-9.011-9.011-9.011zM584.090 493.056h-144.589c-4.915 0-9.011 4.096-9.011 9.011s4.096 9.011 9.011 9.011h144.589c4.915 0 9.011-4.096 9.011-9.011 0.41-4.915-3.686-9.011-9.011-9.011zM530.022 384.922h-36.045c-4.915 0-9.011 4.096-9.011 9.011s4.096 9.011 9.011 9.011h36.045c4.915 0 9.011-4.096 9.011-9.011s-4.096-9.011-9.011-9.011z" />
<glyph unicode="&#xe923;" glyph-name="share" d="M519.373 806.81l171.622-172.442c10.24-10.24-4.915-25.395-15.155-15.155l-145.408 145.818c-4.096 4.096-7.782 2.867-7.782-3.277v-413.696c0-5.734-4.915-10.65-10.65-10.65-6.144 0-10.65 4.915-10.65 10.65v413.696c0 5.734-3.277 7.373-7.782 3.277l-145.408-145.818c-10.24-10.24-25.395 4.915-15.155 15.155l171.213 172.442c4.096 4.096 11.059 4.096 15.155 0zM404.685 536.474c5.734 0 10.65-4.915 10.65-10.65s-4.915-10.65-10.65-10.65h-86.016c-5.734 0-10.65-4.915-10.65-10.65v-386.253c0-5.734 4.915-10.65 10.65-10.65h386.253c5.734 0 10.65 4.915 10.65 10.65v386.253c0 6.144-4.915 10.65-10.65 10.65h-86.016c-5.734 0-10.65 4.915-10.65 10.65s4.915 10.65 10.65 10.65h86.016c18.022 0 32.358-14.336 32.358-32.358v-386.253c0-17.613-14.336-32.358-32.358-32.358h-385.843c-17.613 0-32.358 14.336-32.358 32.358v386.253c0 17.613 14.336 32.358 32.358 32.358h85.606z" />
<glyph unicode="&#xe924;" glyph-name="ADELANTE" d="M499.712 224.768c2.048-2.048 4.915-4.096 7.782-4.915h0.41c2.458-1.229 5.325-1.638 8.602-1.638s5.734 0.41 8.602 1.638h0.41c2.867 1.229 5.734 2.867 7.782 5.325l138.035 138.035c9.011 9.011 9.011 24.166 0 33.178-4.506 4.506-10.65 6.963-16.794 6.963s-11.878-2.458-16.794-6.963l-97.894-97.894v356.352c0 13.107-10.65 23.347-23.347 23.347-13.107 0-23.347-10.65-23.347-23.347v-356.352l-98.304 98.304c-4.506 4.506-10.65 6.963-16.794 6.963s-11.878-2.458-16.794-6.963c-9.011-9.011-9.011-24.166 0-33.178l138.445-138.854zM516.096 64.614c211.354 0 383.386 172.032 383.386 383.386s-172.032 383.386-383.386 383.386-383.386-172.032-383.386-383.386 172.032-383.386 383.386-383.386zM516.096 784.282c185.549 0 336.282-150.733 336.282-336.282s-150.733-336.282-336.282-336.282-336.282 150.733-336.282 336.282 150.733 336.282 336.282 336.282z" />
<glyph unicode="&#xe925;" glyph-name="after" d="M678.407 117.107c11.878-9.83 29.491-8.602 39.731 3.686 4.506 5.325 6.554 11.469 6.554 18.022 0 8.192-3.277 15.974-10.24 21.709l-343.654 287.949 343.654 287.949c11.878 9.83 13.517 27.853 3.686 39.731s-27.853 13.517-39.731 3.686l-369.459-309.248c-12.698-10.65-12.698-32.358 0-43.008l369.459-310.477z" />
<glyph unicode="&#xe926;" glyph-name="next2" d="M345.402 117.107l369.459 309.248c12.698 10.65 12.698 32.358 0 43.008l-369.459 309.658c-11.878 9.83-29.491 8.192-39.731-3.686s-8.602-29.491 3.686-39.731l343.654-287.949-343.654-287.949c-6.554-5.734-10.24-13.517-10.24-21.709 0-6.554 2.048-12.698 6.554-18.022 10.24-11.469 27.853-12.698 39.731-2.867z" />
<glyph unicode="&#xe927;" glyph-name="phone" d="M405.094 273.92c0 0 96.666-104.448 214.221-135.168 0 0 81.101-27.853 146.227 33.997 0 0 42.598 24.576 11.469 74.138l-81.101 98.304c0 0-19.251 27.034-56.525 9.421l-59.392-47.104c0 0-138.445 92.16-183.091 231.014l45.466 36.454c0 0 45.466 31.539 9.421 77.414l-79.053 98.714c0 0-29.491 26.214-64.307 1.638 0 0-84.378-56.525-71.27-168.346-0.41 0.41-10.65-115.507 167.936-310.477z" />
<glyph unicode="&#xe928;" glyph-name="close" d="M512 837.12c-214.63 0-389.12-174.49-389.12-389.12s174.49-389.12 389.12-389.12 389.12 174.49 389.12 389.12-174.49 389.12-389.12 389.12zM859.75 448c0-192.102-155.648-347.75-347.75-347.75s-347.75 155.648-347.75 347.75 155.648 347.75 347.75 347.75 347.75-155.648 347.75-347.75zM687.718 623.718c-11.059 11.059-29.491 11.059-40.55 0l-135.168-135.168-135.578 135.168c-11.059 11.059-29.491 11.059-40.55 0s-11.059-29.491 0-40.55l135.578-134.758-134.758-135.578c-11.059-11.059-11.059-29.491 0-40.55 5.325-5.325 13.107-8.602 20.070-8.602s14.746 2.458 20.070 8.602l135.578 135.578 135.578-135.578c5.325-5.325 13.107-8.602 20.070-8.602s14.746 2.458 20.070 8.602c11.059 11.059 11.059 29.491 0 40.55l-135.578 135.168 135.578 135.578c10.65 10.65 10.65 28.672-0.41 40.141z" />
<glyph unicode="&#xe929;" glyph-name="sellcom-dowload-pdf" d="M384.205 826.47h329.318v-393.216c0-7.373 6.144-13.517 13.517-13.517s13.517 6.144 13.517 13.517v406.733c0 7.373-6.144 13.517-13.517 13.517h-342.835c-7.373 0-13.517-6.144-13.517-13.517 0-7.782 6.144-13.517 13.517-13.517zM288.768 600.371h287.539c7.373 0 13.517 6.144 13.517 13.517s-6.144 13.517-13.517 13.517h-287.539c-7.373 0-13.517-6.144-13.517-13.517s5.734-13.517 13.517-13.517zM288.768 531.558h287.539c7.373 0 13.517 6.144 13.517 13.517s-6.144 13.517-13.517 13.517h-287.539c-7.373 0-13.517-6.144-13.517-13.517-0.41-7.373 5.734-13.517 13.517-13.517zM288.768 463.155h287.539c7.373 0 13.517 6.144 13.517 13.517s-6.144 13.517-13.517 13.517h-287.539c-7.373 0-13.517-6.144-13.517-13.517-0.41-7.373 5.734-13.517 13.517-13.517zM492.339 421.786h-203.571c-7.373 0-13.517-6.144-13.517-13.517s6.144-13.517 13.517-13.517h203.981c7.373 0 13.517 6.144 13.517 13.517-0.41 7.373-6.554 13.517-13.926 13.517zM436.224 353.382h-147.456c-7.373 0-13.517-6.144-13.517-13.517s6.144-13.517 13.517-13.517h147.456c7.373 0 13.517 6.144 13.517 13.517s-6.144 13.517-13.517 13.517zM696.32 227.635l-45.056-45.056v131.891c0 7.373-6.144 13.517-13.517 13.517s-13.517-6.144-13.517-13.517v-131.891l-45.056 45.056c-5.325 5.325-13.926 5.325-19.251 0s-5.325-13.926 0-19.251l68.403-68.403c1.229-1.229 2.867-2.458 4.506-2.867 0 0 0 0 0 0 1.638-0.41 3.277-0.819 4.915-0.819v0c0 0 0 0 0 0s0 0 0 0c1.638 0 3.277 0.41 4.915 0.819 0 0 0 0 0.41 0 1.638 0.819 3.277 1.638 4.506 2.867 0 0 0 0 0 0l68.403 68.403c5.325 5.325 5.325 13.926 0 19.251-5.734 5.325-14.336 5.325-19.661 0zM675.43 418.099v356.762c0 7.373-6.144 13.517-13.517 13.517h-337.51c-3.277 0-6.554-1.229-9.011-3.277l-113.869-97.485c-2.867-2.458-4.915-6.554-4.915-10.24v-516.096c0-7.373 6.144-13.517 13.517-13.517h257.638c31.13-62.259 95.437-104.858 169.574-104.858 104.448 0 189.645 85.197 189.645 189.645 0 91.341-65.126 167.936-151.552 185.549zM456.704 174.797h-232.653v496.435l105.267 90.112h318.669v-339.968c-3.686 0-6.963 0.41-10.65 0.41-104.448 0-189.645-85.197-189.645-189.645 0-20.070 3.277-39.322 9.011-57.344zM637.338 69.53c-89.702 0-162.611 72.909-162.611 162.611s72.909 162.611 162.611 162.611 162.611-72.909 162.611-162.611-72.909-162.611-162.611-162.611z" />
</font>
</defs>
</svg>
